<svg xmlns="http://www.w3.org/2000/svg" xmlns:svg="http://www.w3.org/2000/svg" version="1.1" id="svg1" xml:space="preserve" viewBox="8.01 32.61 199.32 163.15"><defs id="defs1"/><g id="layer1"><path style="fill:#000000" id="path3"/><g id="g8" transform="translate(4.3410475,-2.1705245)"><path style="fill:#bdc165" d="m 183.37251,176.68369 c -3.08976,-3.00752 -4.5523,-4.1759 -8.61892,-6.88537 -6.17993,-4.11751 -9.08257,-5.76109 -13.37619,-7.57408 -1.20442,-0.50857 -1.57922,-0.67614 -2.23412,-0.99885 -0.25794,-0.1271 -0.61972,-0.2876 -0.80396,-0.35666 -0.18424,-0.0691 -0.45558,-0.20014 -0.60298,-0.29127 -0.14739,-0.0911 -0.34838,-0.19071 -0.44664,-0.22128 -0.0983,-0.0306 -0.5103,-0.20132 -0.91563,-0.37944 -0.68922,-0.30286 -1.75031,-0.66006 -3.46151,-1.16525 -0.36849,-0.10879 -0.91116,-0.27583 -1.20595,-0.37121 -0.75321,-0.2437 -3.69581,-1.11644 -4.57813,-1.35781 -1.14724,-0.31386 -2.25241,-0.54121 -3.37219,-0.69372 -0.67623,-0.0921 -1.12649,-0.17634 -1.3176,-0.24652 -0.7688,-0.2823 -1.29816,-0.34339 -1.96198,-0.22641 -0.20701,0.0365 -0.39423,0.0553 -0.41604,0.0418 -0.0587,-0.0362 -0.31189,0.0225 -0.40685,0.0943 l -0.0827,0.0625 0.14713,0.18278 c 0.0823,0.10219 0.17307,0.17284 0.20597,0.16024 0.0324,-0.0124 0.11868,-0.0106 0.19182,0.004 l 0.13298,0.0266 -0.0287,0.11715 c -0.0158,0.0644 -0.0463,0.12873 -0.0678,0.14287 -0.06,0.0395 0.30508,0.42905 0.56122,0.59873 0.53499,0.35441 0.93848,0.66717 1.32258,1.02517 0.27278,0.25424 0.50148,0.42401 0.68503,0.50851 0.19457,0.0896 0.41991,0.26175 0.76685,0.58592 1.46625,1.37002 1.68671,1.56405 1.88035,1.65492 l 0.20864,0.0979 0.16145,0.25359 c 0.18824,0.29567 0.57228,0.65861 0.8414,0.79517 0.11333,0.0575 0.261,0.19351 0.36989,0.34066 0.0997,0.13473 0.20264,0.24495 0.22878,0.24495 0.0975,0 0.31181,0.19138 0.39364,0.35152 0.0466,0.0911 0.38533,0.46194 0.75282,0.82408 0.44727,0.44075 0.69491,0.72014 0.74905,0.84505 0.0445,0.10263 0.24561,0.35723 0.44697,0.56578 0.26115,0.27048 0.40795,0.46761 0.51209,0.68766 0.0968,0.20454 0.25381,0.42233 0.46601,0.64641 0.17602,0.18586 0.36691,0.41819 0.4242,0.51629 0.0573,0.0981 0.20739,0.28873 0.33354,0.42362 0.29498,0.31542 0.48098,0.55909 0.59633,0.78124 0.0507,0.0976 0.26674,0.34802 0.48013,0.55648 0.27336,0.26705 0.42072,0.45148 0.49881,0.62427 0.0609,0.13489 0.21447,0.36015 0.34114,0.50057 0.42097,0.46667 0.56054,0.6405 0.6026,0.75049 0.041,0.10723 0.40246,0.55235 0.67461,0.83075 0.0764,0.0781 0.16753,0.20858 0.2025,0.28984 0.035,0.0813 0.2352,0.32833 0.44495,0.54906 0.20975,0.22072 0.38164,0.41721 0.38197,0.43663 3.3e-4,0.0194 0.13627,0.17627 0.30208,0.34855 0.16582,0.17228 0.32906,0.36708 0.36276,0.43289 0.0337,0.0658 0.1945,0.2547 0.35732,0.41976 0.16283,0.16506 0.37447,0.39127 0.47032,0.5027 0.10983,0.12768 0.27087,0.24687 0.43548,0.3223 0.24965,0.11441 0.31662,0.19546 0.21387,0.25886 -0.0301,0.0186 -0.0196,0.0494 0.0289,0.0849 0.2015,0.1471 -0.0607,0.38122 -0.5057,0.4516 l -0.16819,0.0266 -0.69803,-0.33284 c -0.38392,-0.18307 -0.77586,-0.35799 -0.87096,-0.38872 -0.0951,-0.0307 -0.25117,-0.0952 -0.34679,-0.14318 -0.0956,-0.048 -0.24637,-0.096 -0.33499,-0.10655 -0.20663,-0.0247 -1.43873,-0.44188 -1.70205,-0.5763 -0.11055,-0.0564 -0.36118,-0.19441 -0.55696,-0.30661 -0.19578,-0.11219 -0.49726,-0.25723 -0.66997,-0.3223 -0.1727,-0.0651 -0.44465,-0.18303 -0.60432,-0.26214 -0.15968,-0.0791 -0.3547,-0.15775 -0.43339,-0.17477 -0.0787,-0.017 -0.19826,-0.0743 -0.26573,-0.12728 -0.0858,-0.0674 -0.21376,-0.10467 -0.42559,-0.12405 -0.22414,-0.0205 -0.34731,-0.0584 -0.47363,-0.14583 -0.12351,-0.0855 -0.22688,-0.11812 -0.37381,-0.11812 -0.22695,0 -0.45094,-0.0648 -0.61841,-0.1789 -0.0614,-0.0418 -0.23762,-0.0871 -0.39158,-0.1005 l -0.27991,-0.0244 -0.21531,-0.13793 c -0.11842,-0.0759 -0.23214,-0.13794 -0.25272,-0.13794 -0.0413,0 -0.5969,-0.25723 -0.92163,-0.42674 -0.13318,-0.0695 -0.28205,-0.10835 -0.41537,-0.10835 -0.19937,0 -0.36497,-0.0609 -0.60534,-0.22276 -0.28041,-0.18877 -0.59343,-0.35692 -0.66445,-0.35692 -0.0814,0 -0.84621,-0.37284 -1.03368,-0.50392 -0.0596,-0.0417 -0.14986,-0.0758 -0.20061,-0.0758 -0.0824,0 -0.21009,-0.0546 -0.49082,-0.20977 -0.0491,-0.0272 -0.29032,-0.145 -0.53598,-0.26187 -0.24565,-0.11687 -0.49689,-0.265 -0.55831,-0.32918 -0.0614,-0.0642 -0.27245,-0.20248 -0.46898,-0.30734 -0.19652,-0.10486 -0.40756,-0.21796 -0.46898,-0.25133 -0.0614,-0.0334 -0.19205,-0.082 -0.29032,-0.10798 -0.0983,-0.026 -0.31424,-0.15575 -0.47995,-0.28832 -0.16572,-0.13257 -0.35422,-0.2543 -0.41889,-0.2705 -0.0647,-0.0162 -0.19003,-0.0786 -0.27855,-0.13866 -0.0885,-0.0601 -0.18507,-0.10918 -0.21455,-0.10918 -0.0825,0 -0.84704,-0.39453 -0.90902,-0.46909 -0.0302,-0.0363 -0.089,-0.066 -0.13077,-0.066 -0.18066,0 -0.49038,-0.15124 -0.73191,-0.35739 l -0.26044,-0.2223 h -0.1498 c -0.20262,0 -0.37466,-0.0701 -0.53527,-0.21816 -0.16497,-0.15206 -0.5555,-0.40611 -0.62428,-0.40611 -0.0279,0 -0.11735,-0.0491 -0.19884,-0.10914 -0.0815,-0.06 -0.21103,-0.12264 -0.28784,-0.13914 -0.20841,-0.0448 -0.38164,-0.14249 -0.63989,-0.36096 -0.12774,-0.10806 -0.29858,-0.21892 -0.37965,-0.24635 -0.0811,-0.0274 -0.20295,-0.0885 -0.27084,-0.1357 -0.0679,-0.0472 -0.24512,-0.10301 -0.39383,-0.12399 -0.25809,-0.0364 -0.37982,-0.0922 -0.4548,-0.20844 -0.0499,-0.0773 -0.51815,-0.35011 -0.72284,-0.42108 -0.097,-0.0336 -0.28792,-0.1619 -0.42432,-0.28507 -0.1364,-0.12317 -0.32839,-0.2515 -0.42665,-0.2852 -0.0983,-0.0337 -0.24865,-0.10849 -0.33419,-0.16622 -0.0855,-0.0577 -0.18096,-0.10498 -0.21203,-0.10498 -0.0311,0 -0.13364,-0.0696 -0.22792,-0.15461 -0.098,-0.0884 -0.3899,-0.24866 -0.68127,-0.3741 -1.80426,-0.77671 -3.54563,-1.68007 -5.35957,-2.78036 -1.07652,-0.65298 -1.32584,-0.83191 -2.56461,-1.84055 -1.08999,-0.8875 -1.65645,-1.31578 -2.94787,-2.22875 -0.51588,-0.3647 -1.17915,-0.83653 -1.47394,-1.0485 -0.29478,-0.21198 -0.66918,-0.47873 -0.83199,-0.59279 -4.18399,-2.931 -9.67563,-7.80561 -10.97885,-9.74528 -0.70394,-1.04772 -0.83887,-1.97811 -0.44955,-3.09986 0.0737,-0.21223 0.13393,-0.42513 0.13393,-0.47311 0,-0.62588 1.92403,-3.22345 2.62981,-3.55043 0.089,-0.0412 0.19188,-0.10072 0.22873,-0.13224 0.26822,-0.22946 1.94993,-1.05355 3.81883,-1.87135 0.29479,-0.129 0.97816,-0.43005 1.5186,-0.66901 3.98564,-1.76226 5.48496,-2.30917 8.66495,-3.16073 0.68784,-0.1842 1.54205,-0.41425 1.89825,-0.51123 5.04135,-1.37257 6.74684,-1.73384 9.82623,-2.08146 0.52816,-0.0596 1.03064,-0.11925 1.11662,-0.13252 0.16578,-0.0256 0.74631,-0.0851 2.59055,-0.26585 0.62643,-0.0614 1.3299,-0.13202 1.56327,-0.15697 0.23337,-0.025 0.70068,-0.0653 1.03845,-0.0898 0.33778,-0.0244 0.88046,-0.0638 1.20595,-0.0875 0.32549,-0.0237 0.93349,-0.0639 1.35111,-0.0893 2.73936,-0.16656 3.74142,-0.22847 4.33247,-0.26768 1.96575,-0.1304 3.58237,-0.22897 5.51631,-0.33635 l 1.2285,-0.0682 0.77439,0.11246 c 0.57441,0.0834 0.96076,0.11257 1.49605,0.11286 1.35543,7.3e-4 3.52978,0.25173 4.40649,0.50866 0.41248,0.12089 1.75473,0.64347 1.66362,0.64771 -0.91105,0.0424 -4.38776,0.85079 -6.6884,1.55521 -0.39304,0.12034 -0.82518,0.2424 -0.96029,0.27125 -0.59937,0.12794 -1.47831,0.33063 -1.77448,0.40921 -0.17758,0.0471 -0.45897,0.0856 -0.6253,0.0855 -0.16634,-7e-5 -0.44312,0.0315 -0.61508,0.0702 -0.17196,0.0387 -0.35839,0.0794 -0.41429,0.0904 -0.39172,0.0773 -0.37075,0.57104 0.0319,0.75234 l 0.18246,0.0821 -0.0676,0.0745 c -0.11015,0.12151 -0.0839,0.13439 0.27378,0.13439 0.38773,0 0.44839,0.0162 2.08883,0.55804 2.44439,0.80737 2.92416,1.01957 7.70872,3.4095 4.09454,2.04526 5.19059,2.62848 6.63901,3.53269 0.74587,0.46563 0.9405,0.60123 4.98488,3.47292 1.33274,0.9463 2.91558,2.05149 3.51744,2.45599 3.38385,2.27419 3.81636,2.59858 5.2481,3.93619 2.1083,1.96969 3.69392,3.59722 5.53842,5.6848 0.44218,0.50045 1.11648,1.26276 1.49844,1.69403 1.11855,1.26294 1.77654,2.03655 2.27881,2.67922 1.05519,1.35017 1.38153,1.77543 1.38153,1.80034 0,0.0144 -0.27637,-0.16227 -0.61414,-0.39259 -2.2692,-1.54736 -2.92528,-1.96271 -4.23198,-2.6792 -0.65808,-0.36083 -3.06543,-1.58236 -3.11846,-1.58236 -0.0127,0 -0.33121,-0.14276 -0.70786,-0.31724 -2.08714,-0.96686 -4.66573,-1.91261 -7.65251,-2.80672 -2.2419,-0.67112 -2.9472,-0.85922 -5.09178,-1.35797 -0.99586,-0.2316 -1.95774,-0.47539 -2.37481,-0.60191 -0.15157,-0.046 -0.69108,-0.14661 -1.1989,-0.22363 l -0.92333,-0.14003 -0.13198,0.0546 c -0.1726,0.0714 -0.27808,0.27559 -0.24187,0.46829 l 0.0278,0.14789 0.34464,0.28436 c 0.49373,0.40737 1.16413,0.90594 1.71234,1.27345 0.26092,0.17491 0.70401,0.53429 0.98465,0.79862 0.28063,0.26433 0.94147,0.87133 1.46851,1.34889 2.13221,1.932 2.96922,2.85948 5.4987,6.09311 l 0.74393,0.95102 0.55598,0.97108 c 0.30579,0.5341 0.73291,1.30217 0.94915,1.70684 0.21625,0.40466 0.47305,0.87621 0.57068,1.04788 0.0976,0.17168 0.84158,1.61424 1.65325,3.20569 1.3583,2.66329 1.82755,3.63799 2.18125,4.53083 0.14156,0.35731 0.63191,2.20552 0.60995,2.29895 -0.007,0.0307 -0.31524,-0.23818 -0.68448,-0.59759 z M 51.278041,148.62759 c -0.479029,-0.0194 -1.564381,-0.0564 -2.411893,-0.0824 -4.180599,-0.1278 -6.19446,-0.54564 -8.798945,-1.82562 -0.996935,-0.48994 -2.254201,-1.60063 -2.706368,-2.39085 -0.534495,-0.9341 -0.486236,-0.83132 -1.13186,-2.41056 -0.1905,-0.46598 -0.382749,-0.99772 -0.42722,-1.18166 -0.04447,-0.18394 -0.119095,-0.44479 -0.165829,-0.57968 -0.04673,-0.13489 -0.21295,-0.7469 -0.36937,-1.36002 l -0.284399,-1.11478 -0.04803,-0.79298 c -0.02642,-0.43615 -0.04803,-1.38237 -0.04803,-2.10273 v -1.30974 l 0.09167,-0.86256 c 0.273583,-2.57427 0.942962,-4.83098 2.319836,-7.82098 0.339372,-0.73697 0.667433,-1.45935 0.729023,-1.60527 0.743214,-1.76086 2.528077,-5.28112 3.43539,-6.77558 0.74716,-1.23067 0.958793,-1.52971 1.533805,-2.16728 0.969261,-1.07471 2.489138,-2.8728 2.973722,-3.51806 0.06446,-0.0858 0.200088,-0.24239 0.301387,-0.3479 0.101299,-0.10552 0.23635,-0.29614 0.300114,-0.42362 0.193357,-0.38656 0.541854,-0.70059 0.393291,-0.3544 -0.510219,1.18897 -0.820583,2.43142 -0.976412,3.90878 -0.06234,0.59103 0.553735,2.66065 1.136107,3.81659 0.680409,1.35053 1.601641,2.47661 2.688764,3.28665 l 0.29901,0.22279 0.274695,0.41 c 0.71136,1.06174 2.446119,2.58323 3.613324,3.16912 2.0088,1.00834 5.749614,1.91506 8.837515,2.14209 0.659194,0.0485 2.60365,0.28395 3.69153,0.44706 0.381826,0.0572 2.161567,0.18093 5.160937,0.35864 l 4.578132,0.27126 1.406938,-0.0356 c 1.462111,-0.037 2.134754,-0.0418 3.305187,-0.0238 0.380767,0.006 1.094285,-0.0199 1.585597,-0.0573 l 0.893294,-0.068 0.893294,0.0495 0.893294,0.0495 0.430671,-0.11085 0.430672,-0.11084 2.070551,0.0815 c 1.138803,0.0448 2.351939,0.0825 2.695857,0.0836 0.343918,0.001 1.057437,0.0304 1.585597,0.065 l 0.960291,0.0629 0.446647,-0.0591 c 0.245656,-0.0325 0.547142,-0.0927 0.66997,-0.13365 0.509119,-0.16988 4.866578,-0.25364 6.847913,-0.13163 l 0.46087,0.0284 -0.0298,0.0735 c -0.0164,0.0404 -0.14035,0.39277 -0.2754,0.78294 l -0.24554,0.7094 -0.15197,0.14309 c -0.11205,0.1055 -0.15197,0.18102 -0.15197,0.28745 0,0.0883 -0.0427,0.19499 -0.10989,0.27474 -0.0604,0.0717 -0.12307,0.20504 -0.1392,0.29628 -0.0161,0.0913 -0.0966,0.29633 -0.17875,0.45575 -0.20239,0.39255 -0.37613,0.79229 -0.37613,0.86539 0,0.0331 -0.0304,0.13271 -0.0675,0.22144 -0.0371,0.0887 -0.0964,0.26674 -0.131727,0.39561 -0.03532,0.12887 -0.137207,0.48513 -0.226422,0.79169 -0.08921,0.30656 -0.198907,0.68781 -0.24376,0.84723 -0.300747,1.06888 -0.460883,1.60295 -0.5816,1.9397 -0.05275,0.14715 -0.112404,0.36787 -0.132566,0.4905 -0.02016,0.12262 -0.06685,0.36342 -0.103758,0.53509 -0.0369,0.17167 -0.08004,0.38738 -0.09587,0.47935 -0.03659,0.21273 0.0024,0.21993 -0.747521,-0.13794 l -0.63947,-0.30516 -0.334985,-0.0543 c -0.184242,-0.0299 -0.560637,-0.0729 -0.836434,-0.0956 l -0.501448,-0.0413 -0.324848,0.063 c -0.178667,0.0347 -0.797178,0.22594 -1.374469,0.42503 -1.400674,0.48306 -1.941714,0.78935 -2.660709,1.50627 -0.25842,0.25768 -0.287161,0.27285 -0.287161,0.15163 0,-0.24608 -0.792299,-1.07959 -1.314666,-1.38304 -0.764073,-0.44386 -2.229988,-0.72979 -3.029205,-0.59084 -0.157434,0.0274 -0.70907,0.0498 -1.225858,0.0498 -1.178652,0 -1.51066,0.0542 -2.351049,0.38346 -0.347882,0.13631 -0.743057,0.26809 -0.878167,0.29284 -0.400183,0.0733 -2.080576,0.8029 -2.389562,1.03752 -0.0737,0.056 -0.238092,0.15438 -0.365323,0.2187 -0.12723,0.0643 -0.24449,0.13822 -0.260576,0.16421 -0.01609,0.026 -0.11298,0.0999 -0.215318,0.16426 -0.246228,0.15484 -0.910425,0.80193 -1.236787,1.20492 -0.408748,0.50473 -1.869623,2.72808 -1.941909,2.95546 -0.01698,0.0534 -0.08923,0.21453 -0.160552,0.35805 -0.07132,0.14351 -0.129678,0.27855 -0.129678,0.30008 0,0.0215 -0.05974,0.11797 -0.132751,0.21431 -0.07301,0.0963 -0.133311,0.19809 -0.133994,0.22613 -0.002,0.0804 -0.02405,0.0848 -2.300996,0.46311 l -2.161074,0.35902 -1.175269,0.0389 -1.17527,0.0389 -1.339941,0.22262 c -0.736968,0.12244 -1.571081,0.23513 -1.853585,0.25041 -1.406969,0.0761 -2.51314,0.17612 -3.264418,0.29514 l -0.830192,0.13152 -0.934063,4e-5 -0.934064,4e-5 -1.027288,0.17695 c -0.565008,0.0973 -1.127557,0.19593 -1.250109,0.21914 l -0.222821,0.0422 -0.112164,-0.0654 c -0.08328,-0.0485 -0.158176,-0.0554 -0.290823,-0.0269 l -0.178659,0.0384 0.0035,0.0976 c 0.0021,0.0565 -0.02332,0.0976 -0.06025,0.0976 -0.05795,0 -0.287563,0.0883 -0.456944,0.17579 -0.03685,0.019 -0.067,0.072 -0.067,0.11768 v 0.0831 l 0.200991,0.0347 c 0.239929,0.0414 0.741376,-0.006 1.947463,-0.18353 l 0.896296,-0.13207 0.308878,0.0356 c 0.296859,0.0342 2.096469,0.0295 6.048291,-0.016 1.019471,-0.0117 3.306632,0.008 5.082578,0.0432 2.397222,0.0479 3.310721,0.0519 3.546265,0.0154 l 0.317273,-0.0491 0.585218,0.0544 c 0.321871,0.0299 0.690752,0.047 0.819737,0.0379 0.138105,-0.01 0.233972,0.002 0.233192,0.0281 -0.0016,0.0545 -0.256894,0.96396 -0.275644,0.98198 -0.05295,0.0509 -3.185539,0.46441 -3.199577,0.42237 -0.01082,-0.0324 -0.04431,-0.0248 -0.09605,0.022 -0.09296,0.084 -0.209557,0.0933 -1.96588,0.15634 -0.700119,0.0251 -1.795521,0.0752 -2.434226,0.11132 -2.268917,0.12817 -3.093446,0.16458 -4.019822,0.17749 -1.319402,0.0184 -3.813863,0.10383 -4.027553,0.13794 l -0.178932,0.0286 -0.192279,-0.0979 -0.192279,-0.0979 -1.768966,0.049 c -0.972931,0.0269 -1.929759,0.0586 -2.126284,0.0703 -0.722771,0.0432 -2.883509,0.0555 -3.729502,0.0213 z m 20.833797,-8.8953 c 0.195269,-0.0373 0.476656,-0.079 0.625306,-0.0926 0.716139,-0.0658 1.767992,-0.46117 2.452739,-0.922 1.051721,-0.70782 1.862543,-1.91693 1.875582,-2.79692 l 0.005,-0.33443 -0.123652,-0.2357 c -0.219947,-0.41926 -0.62696,-0.76759 -0.896903,-0.76759 -0.04301,0 -0.144086,-0.0502 -0.224604,-0.11148 -0.08052,-0.0613 -0.17,-0.11148 -0.19885,-0.11148 -0.02885,0 -0.196274,-0.0502 -0.372054,-0.11147 -1.484737,-0.51788 -4.871588,1.39135 -5.576655,3.14365 l -0.09868,0.24525 -0.0038,0.40132 -0.0038,0.40132 0.147506,0.34495 0.147507,0.34496 0.230582,0.20738 c 0.483335,0.4347 1.136467,0.5627 2.014886,0.39489 z" id="path11"/><path style="fill:#576a71" d="m 75.466833,196.24699 c -2.395189,-0.91687 -4.609316,-2.12203 -6.158981,-3.35237 -3.321975,-2.63744 -6.004715,-7.85701 -6.032272,-11.73646 l -0.0051,-0.71345 0.128197,-0.57968 c 0.249209,-1.12688 0.881217,-2.50045 2.164556,-4.70434 1.275997,-2.19127 2.418705,-3.3072 4.898263,-4.78345 0.519715,-0.30942 1.710373,-0.91336 2.478891,-1.25738 1.450718,-0.64938 1.930153,-0.83434 4.622796,-1.78342 2.174819,-0.76657 2.533398,-0.90481 4.689793,-1.80801 0.343918,-0.14405 0.786099,-0.32213 0.982623,-0.39573 0.196525,-0.0736 0.678904,-0.25717 1.071953,-0.40793 0.393049,-0.15076 0.945775,-0.36051 1.228279,-0.46612 1.622687,-0.60661 2.438272,-0.92405 5.024778,-1.95574 7.541949,-3.00827 8.196734,-3.29815 9.692241,-4.29078 0.44316,-0.29414 0.80674,-0.57709 2.3449,-1.82485 0.25794,-0.20924 0.58957,-0.4753 0.73696,-0.59124 0.82808,-0.65136 1.90501,-1.59615 2.42308,-2.12577 0.32551,-0.33276 0.62182,-0.60501 0.65846,-0.60501 0.0366,0 0.12119,-0.0611 0.18788,-0.13585 0.16686,-0.18697 0.32134,-0.16667 0.42598,0.056 0.0427,0.0909 0.12319,0.18956 0.17875,0.21914 0.11504,0.0612 0.28634,0.23311 1.52959,1.53477 1.42732,1.49437 2.51626,2.50815 3.59023,3.34244 0.221,0.17167 0.40319,0.34331 0.40488,0.38141 0.0129,0.29056 -0.50599,0.90153 -1.49819,1.76411 -0.93135,0.80968 -1.17328,0.9918 -2.28613,1.72097 -1.23942,0.81211 -2.36798,1.56203 -3.31429,2.20232 -0.71113,0.48116 -1.90764,1.2078 -2.50123,1.51899 -0.60021,0.31467 -1.57465,0.7242 -2.72454,1.14505 -1.138087,0.41653 -2.29018,0.87878 -3.908166,1.56806 -2.292266,0.97654 -3.698694,1.53742 -4.868452,1.94153 -0.270221,0.0934 -0.672204,0.2336 -0.893294,0.31168 -0.22109,0.0781 -1.427037,0.48901 -2.679882,0.9132 -9.91001,3.35532 -11.842658,4.2375 -14.739349,6.72791 -2.294821,1.97295 -3.288146,3.45334 -3.817776,5.68977 l -0.08976,0.37902 v 1.82823 1.82822 l 0.08627,0.35673 c 0.24189,1.00024 0.774175,2.12764 1.44734,3.06553 1.813579,2.52675 3.346026,4.11772 4.873097,5.05918 0.387932,0.23917 0.360723,0.23634 -0.352405,-0.0366 z m 46.543377,-70.05822 c -0.0148,-0.12876 -0.0299,-0.36453 -0.0335,-0.52395 -0.007,-0.32217 -0.0674,-0.50572 -0.23944,-0.73094 -0.0636,-0.0832 -0.12382,-0.19393 -0.13387,-0.24606 -0.0101,-0.0521 -0.0567,-0.16965 -0.10358,-0.26118 -0.0469,-0.0915 -0.13037,-0.26676 -0.18545,-0.38938 -0.0969,-0.21574 -0.60095,-0.95199 -0.87003,-1.27084 -0.747,-0.88517 -2.42261,-2.26366 -3.78192,-3.11129 l -0.47373,-0.29541 0.13276,-0.22521 c 0.073,-0.12386 0.17566,-0.28528 0.22808,-0.35871 0.12223,-0.17121 0.74151,-1.32973 1.8951,-3.54524 0.5044,-0.96874 1.1368,-2.14259 1.40532,-2.60857 0.92085,-1.59797 1.95747,-3.44591 2.52637,-4.50367 0.18467,-0.34335 0.3429,-0.63314 0.35163,-0.64398 0.0884,-0.10979 3.57238,1.4874 4.90762,2.24987 1.9955,1.13948 3.83265,2.66081 5.06094,4.19092 0.65957,0.82164 0.91875,1.21031 1.85844,2.78693 1.46575,2.45927 2.02858,4.16744 1.77023,5.37263 l -0.0286,0.13321 -0.23471,0.0337 c -0.12908,0.0186 -0.35804,0.0752 -0.50878,0.1259 -0.2957,0.0995 -0.80692,0.17473 -1.31751,0.19402 l -0.31975,0.0121 -0.24727,0.12078 c -0.24902,0.12163 -0.61183,0.20078 -0.97261,0.21218 -0.10735,0.003 -0.21529,0.0178 -0.23985,0.032 -0.0246,0.0142 -0.0786,0.0312 -0.12013,0.0376 -0.0415,0.006 -0.15252,0.0519 -0.24671,0.10086 -0.15113,0.0786 -0.60849,0.1803 -0.82794,0.18403 -0.043,7.3e-4 -0.0782,0.0168 -0.0782,0.0357 0,0.0189 -0.0251,0.0368 -0.0558,0.0398 -0.0307,0.003 -0.17642,0.0446 -0.32382,0.0925 -1.1171,0.36273 -1.46,0.44978 -1.80203,0.4575 -0.15227,0.003 -0.28784,0.024 -0.30128,0.0457 -0.0134,0.0217 -0.0423,0.0284 -0.0642,0.0149 -0.0219,-0.0135 -0.16494,0.0385 -0.31789,0.11559 -0.15295,0.0771 -0.31957,0.14685 -0.37026,0.15505 -0.11372,0.0184 -0.26699,0.0547 -0.28199,0.0668 -0.006,0.005 -0.0262,0.0125 -0.0447,0.0167 -0.12452,0.0289 -0.23449,0.0819 -0.23449,0.11303 0,0.0438 -0.23301,0.11563 -0.51339,0.15834 -0.0736,0.0112 -0.1406,0.0409 -0.14898,0.066 -0.008,0.0251 -0.0336,0.0343 -0.0561,0.0204 -0.0225,-0.0139 -0.0408,-0.003 -0.0408,0.0246 0,0.0274 -0.0201,0.0374 -0.0447,0.0223 -0.0246,-0.0152 -0.0447,-0.005 -0.0447,0.0223 0,0.0274 -0.0201,0.0375 -0.0447,0.0223 -0.0246,-0.0152 -0.0447,-0.008 -0.0447,0.0149 0,0.0234 -0.12359,0.0642 -0.27465,0.0908 -0.15106,0.0266 -0.41532,0.11835 -0.58725,0.20397 -0.17193,0.0856 -0.3306,0.14457 -0.35261,0.13099 -0.022,-0.0136 -0.0693,-4.3e-4 -0.10505,0.0292 -0.0358,0.0296 -0.065,0.0424 -0.065,0.0285 0,-0.0448 -0.25301,0.0608 -0.34028,0.14201 -0.0967,0.09 -1.08945,0.45219 -1.23928,0.45219 -0.0549,0 -0.12395,0.0241 -0.15343,0.0535 -0.0295,0.0294 -0.0536,0.0398 -0.0536,0.023 0,-0.0168 -0.15577,0.0478 -0.34615,0.14349 -0.86598,0.43525 -0.88515,0.43786 -0.92117,0.12557 z M 81.471376,123.4037 c -0.721873,-0.0575 -2.102204,-0.25407 -3.796499,-0.54081 -0.762799,-0.12909 -1.18375,-0.15979 -3.483847,-0.25414 -0.331635,-0.0136 -1.12555,-0.0549 -1.764255,-0.0918 -0.638705,-0.0369 -1.703958,-0.0846 -2.367229,-0.10593 -0.840646,-0.0271 -1.273595,-0.059 -1.42927,-0.10552 -0.122828,-0.0367 -0.31377,-0.0807 -0.424315,-0.0979 -0.762434,-0.11853 -1.377481,-0.50918 -1.598183,-1.01509 -0.0812,-0.18613 -0.06977,-1.54038 0.01588,-1.88186 0.03692,-0.1472 0.08467,-0.64867 0.106139,-1.11478 0.02702,-0.58647 0.06291,-0.9227 0.116602,-1.09247 0.04266,-0.13489 0.146764,-0.46598 0.231335,-0.73575 0.444935,-1.41931 0.620242,-1.76404 1.83677,-3.61186 0.113023,-0.17168 0.386746,-0.55098 0.608273,-0.8429 0.221527,-0.29191 0.471064,-0.623 0.554527,-0.73575 0.308114,-0.41621 1.626974,-1.6708 2.23781,-2.12875 1.040974,-0.78044 2.869238,-1.93879 4.019823,-2.54688 1.644573,-0.86917 4.292397,-1.80652 5.769915,-2.0426 0.22888,-0.0366 0.454261,-0.0782 0.500847,-0.0926 l 0.0847,-0.0261 -0.03457,0.10541 c -0.01901,0.058 -0.04868,0.75755 -0.06594,1.55461 -0.0204,0.94246 -0.06448,1.76884 -0.126043,2.36332 -0.05207,0.50276 -0.127253,1.38566 -0.167076,1.96199 -0.03982,0.57634 -0.100361,1.26862 -0.134529,1.53839 -0.358041,2.82693 -0.135686,7.03916 0.430022,8.14621 l 0.09213,0.18028 -0.187736,0.56339 -0.187737,0.56338 0.02711,0.31214 c 0.01491,0.17168 0.04928,0.52283 0.07637,0.78034 0.02709,0.25751 0.0538,0.59362 0.05935,0.7469 l 0.01009,0.27869 -0.404736,-0.008 c -0.222605,-0.004 -0.495182,-0.015 -0.605727,-0.0238 z m 31.351934,-5.73052 c -1.05098,-0.45921 -2.78058,-1.03357 -4.2628,-1.4156 -0.39305,-0.1013 -0.74816,-0.19406 -0.78915,-0.20613 l -0.0745,-0.022 0.0382,-0.12078 c 0.021,-0.0664 0.11169,-0.33147 0.20155,-0.58898 0.16592,-0.47542 0.59949,-2.00267 0.98106,-3.45579 0.30579,-1.16456 0.53998,-1.94408 1.0047,-3.34432 0.17907,-0.53955 0.42474,-1.30205 0.54595,-1.69445 0.2322,-0.75174 0.72405,-2.222 0.82223,-2.45786 l 0.0579,-0.13914 0.54896,0.10781 c 1.92758,0.37854 4.03032,0.88009 5.7524,1.37207 0.4813,0.1375 1.25061,0.39162 1.25061,0.4131 0,0.0351 -1.35058,2.66776 -1.62543,3.16847 -0.13101,0.23868 -0.37912,0.68478 -0.55135,0.99134 -0.54145,0.96376 -2.0217,4.05034 -2.0217,4.2156 0,0.0117 -0.13826,0.34717 -0.30725,0.7455 -0.3215,0.75785 -0.85954,2.09286 -0.98633,2.44735 l -0.074,0.20702 z m -27.184294,-0.23911 c 0.01519,-0.096 0.03972,-0.55588 0.05452,-1.02185 0.04297,-1.35328 0.187017,-3.20737 0.332581,-4.28072 0.04656,-0.34335 0.116294,-1.00553 0.154958,-1.4715 0.139273,-1.67854 0.1605,-1.89595 0.248305,-2.5433 l 0.08911,-0.65696 5.31e-4,-1.03073 c 3.94e-4,-0.76696 0.0174,-1.0935 0.06647,-1.27599 0.08471,-0.31508 0.08533,-0.86141 0.0013,-1.14019 -0.03614,-0.11987 -0.05121,-0.2321 -0.0335,-0.2494 0.03575,-0.0349 0.688133,-0.12971 1.640134,-0.23833 0.704677,-0.0804 2.572847,-0.34475 3.148862,-0.44556 0.934105,-0.16348 1.317937,-0.20878 1.971269,-0.23267 l 0.698326,-0.0255 -0.04243,0.24058 c -0.04984,0.28258 -0.34215,1.5661 -0.679328,2.98292 -0.06128,0.25751 -0.134175,0.63877 -0.161982,0.84723 -0.02781,0.20846 -0.07726,0.50945 -0.109908,0.66886 -0.03264,0.15941 -0.07307,0.44034 -0.08983,0.62427 -0.01676,0.18394 -0.05841,0.4749 -0.09255,0.64657 -0.03414,0.17168 -0.09295,0.51923 -0.130696,0.77235 -0.03775,0.25311 -0.08991,0.5541 -0.115911,0.66886 -0.113871,0.50254 -0.451633,3.16695 -0.419806,3.31162 0.01485,0.0675 -0.0059,0.35009 -0.04604,0.62795 -0.0436,0.30157 -0.06722,0.69674 -0.0586,0.98035 l 0.01445,0.47513 -0.334985,0.0527 c -1.768837,0.27826 -4.010506,0.93316 -5.509071,1.60947 -0.274082,0.1237 -0.526558,0.23696 -0.561057,0.25171 l -0.06273,0.0268 z m 17.628734,-2.0524 c -1.71368,-0.18664 -5.436052,-0.2991 -6.934197,-0.20951 -0.337776,0.0202 -0.613838,0.0266 -0.613469,0.0141 3.69e-4,-0.0124 0.05081,-0.18313 0.112085,-0.37933 0.06128,-0.1962 0.141816,-0.58749 0.178974,-0.86952 0.03716,-0.28204 0.135565,-0.85392 0.218683,-1.27084 0.08312,-0.41693 0.164757,-0.86841 0.18142,-1.0033 0.01666,-0.13489 0.05798,-0.35561 0.09182,-0.4905 0.03384,-0.13489 0.100916,-0.48604 0.149057,-0.78034 0.04814,-0.2943 0.127573,-0.76585 0.176516,-1.04788 0.04894,-0.28204 0.122919,-0.73352 0.164392,-1.0033 0.04147,-0.26977 0.101994,-0.65103 0.13449,-0.84723 0.06583,-0.39744 0.321068,-1.52631 0.358935,-1.58748 0.01337,-0.0216 0.06199,-0.22507 0.10803,-0.45215 0.04604,-0.22707 0.146725,-0.70382 0.22374,-1.05943 0.07701,-0.35561 0.181054,-0.84723 0.231198,-1.09248 0.05014,-0.24525 0.100709,-0.46159 0.112368,-0.48076 0.02875,-0.0473 1.532577,0.004 2.359078,0.0802 0.36848,0.034 0.91116,0.0745 1.20595,0.09 0.29478,0.0154 0.87766,0.0659 1.29527,0.11218 0.41762,0.0463 1.08089,0.10493 1.47394,0.13038 0.39305,0.0254 0.79503,0.0554 0.89329,0.0666 0.46553,0.053 2.01602,0.25634 2.06346,0.27061 0.0372,0.0112 -9.3e-4,0.17713 -0.12445,0.54231 -0.0979,0.28942 -0.30067,0.9476 -0.4506,1.46263 -0.35662,1.22504 -0.42794,1.46499 -0.69583,2.34102 -0.40271,1.31688 -0.66837,2.34266 -1.48332,5.72725 -0.10003,0.41546 -0.21972,0.87769 -0.26597,1.02718 -0.0463,0.1495 -0.0984,0.38647 -0.11598,0.52662 l -0.0319,0.25481 -0.22934,-0.006 c -0.12614,-0.003 -0.48058,-0.0329 -0.78765,-0.0663 z m -82.404952,-8.95119 c -0.0017,-0.0454 1.985099,-3.96764 2.555736,-5.04538 0.220749,-0.41693 0.512883,-0.96874 0.649187,-1.22625 1.973395,-3.728252 3.574483,-6.117709 5.990683,-8.940474 1.450998,-1.695153 2.527817,-2.855087 4.305153,-4.63745 1.811915,-1.817041 2.29841,-2.269898 4.054984,-3.774614 0.304907,-0.26119 0.775467,-0.680972 1.045688,-0.93285 0.270222,-0.251878 0.632006,-0.587899 0.803965,-0.746713 0.171959,-0.158814 0.483495,-0.452847 0.692303,-0.653407 1.442733,-1.385748 3.054072,-2.690895 5.770172,-4.673702 2.361061,-1.723623 3.842765,-2.567515 6.490287,-3.696489 0.343918,-0.146656 0.97704,-0.454229 1.406938,-0.683495 2.075651,-1.106952 8.678661,-3.773559 12.193462,-4.924295 3.942331,-1.290709 9.432673,-2.36617 13.89072,-2.720946 0.30707,-0.02444 1.090935,-0.11411 1.741923,-0.199273 2.015726,-0.2637 3.233038,-0.343147 5.248102,-0.342512 0.614139,1.94e-4 2.493406,-0.01036 4.176149,-0.02346 l 3.059532,-0.02381 1.384605,0.09367 c 0.761533,0.05152 1.535349,0.11269 1.719591,0.135936 0.184242,0.02325 0.67667,0.0635 1.094285,0.08945 0.417615,0.02595 1.201477,0.09544 1.741927,0.154426 0.54044,0.05898 1.21376,0.119717 1.49626,0.134966 0.28251,0.01525 0.92568,0.05589 1.42927,0.09032 0.5036,0.03443 1.14677,0.07504 1.42927,0.09026 1.03418,0.0557 5.06399,0.535725 7.25802,0.864557 0.31935,0.04786 0.95247,0.139231 1.40693,0.203039 0.45447,0.06381 1.14789,0.164618 1.54094,0.224022 0.39305,0.0594 0.85533,0.120528 1.02728,0.13583 0.17196,0.0153 0.47345,0.05582 0.66998,0.09004 0.19652,0.03422 0.6522,0.09238 1.01261,0.129246 0.36042,0.03687 0.75176,0.08861 0.86965,0.11499 0.29128,0.06517 1.09866,0.171966 1.66858,0.220714 0.25794,0.02206 0.55942,0.07283 0.66997,0.112815 0.11054,0.03999 0.31899,0.09217 0.46321,0.115966 0.14422,0.0238 0.33516,0.07986 0.42431,0.124577 0.0892,0.04472 0.24156,0.09573 0.33868,0.113359 0.0971,0.01763 0.24786,0.06806 0.33499,0.112064 0.0871,0.04401 0.2212,0.09354 0.29795,0.110068 0.20153,0.04339 0.3473,0.216496 0.3473,0.412414 v 0.161598 l -0.14568,0.121417 c -0.0801,0.06678 -0.36981,0.229286 -0.64373,0.361126 -0.27393,0.13184 -0.7199,0.353777 -0.99104,0.493194 -0.27114,0.139417 -0.62363,0.318509 -0.78331,0.397982 -0.15967,0.07947 -0.34449,0.171566 -0.4107,0.204651 -0.0662,0.03308 -0.24711,0.108229 -0.40199,0.166986 -0.30912,0.117272 -0.6996,0.311074 -0.90462,0.44898 l -0.13172,0.0886 -0.62758,0.02822 c -0.85222,0.03833 -1.45655,0.09107 -3.46379,0.302291 -1.00559,0.10582 -2.97582,0.257927 -5.80641,0.448271 -1.09317,0.07351 -2.57311,0.173961 -3.28875,0.223223 -0.71564,0.04926 -1.92159,0.119592 -2.67988,0.156289 -0.75829,0.0367 -1.48926,0.07722 -1.62437,0.09004 -0.13511,0.01282 -0.80843,0.05333 -1.49627,0.09001 -2.496138,0.133121 -6.980831,0.51455 -9.71457,0.826238 -3.429366,0.391 -8.46381,1.104996 -10.697195,1.517101 -0.623033,0.114962 -2.334423,0.480334 -3.448876,0.736316 -0.472078,0.108433 -0.86629,0.19715 -0.876028,0.19715 -0.0097,0 -0.0718,-0.120337 -0.137913,-0.267416 -0.229027,-0.509497 -1.010119,-0.998587 -1.996185,-1.249936 l -0.344915,-0.08792 -0.595532,5.24e-4 -0.595532,5.23e-4 -0.739889,0.130097 c -0.40694,0.07155 -0.894371,0.134601 -1.083181,0.140104 l -0.343291,0.01001 -0.08186,-0.07396 -0.08186,-0.07396 -0.509884,0.132171 c -0.280435,0.07269 -0.982212,0.213666 -1.559503,0.313272 -0.577291,0.09961 -1.300859,0.229426 -1.607929,0.28849 -0.30707,0.05906 -0.648755,0.12078 -0.7593,0.137147 -0.691701,0.102407 -2.517577,0.604119 -3.841164,1.05547 -1.623431,0.553599 -3.289953,1.206641 -5.493757,2.152777 -0.446801,0.19182 -1.632611,0.783341 -3.0372,1.515055 -0.552725,0.287939 -1.507433,0.785217 -2.121573,1.105061 -4.699201,2.447345 -6.881286,3.845863 -10.741859,6.884553 -0.405332,0.31904 -1.239446,0.966549 -1.853585,1.438909 -2.950739,2.269535 -3.737106,2.930799 -5.467305,4.597519 -4.114935,3.96396 -7.55982,8.146848 -10.957412,13.304828 -0.491958,0.74686 -0.611407,0.9142 -0.61345,0.85939 z" id="path10"/><path style="fill:#6f7042" d="m 73.342401,138.25884 c 0,-0.0138 0.155768,-0.0969 0.346152,-0.18459 1.117597,-0.51464 1.953713,-1.54044 1.800741,-2.20926 l -0.03825,-0.16722 0.140457,1.7e-4 c 0.07725,9e-5 0.206992,0.0407 0.288314,0.0902 l 0.147858,0.09 -0.02503,0.0882 c -0.01377,0.0485 -0.03773,0.13335 -0.05326,0.18853 -0.167157,0.59401 -1.459459,1.74941 -2.261175,2.02164 -0.350422,0.11899 -0.345809,0.11789 -0.345809,0.0824 z M 123.54552,103.253 c -0.47732,-0.1555 -1.96708,-0.56975 -2.38956,-0.66444 -0.19653,-0.044 -0.37303,-0.0937 -0.39223,-0.11033 -0.0416,-0.0361 0.19445,-0.6039 0.81598,-1.96266 0.25241,-0.551809 0.59855,-1.364478 0.76921,-1.805927 0.61387,-1.587922 1.05481,-2.613913 2.15591,-5.016473 1.27592,-2.784012 2.01052,-4.461892 2.64009,-6.030217 l 0.44275,-1.102925 0.33499,0.0028 c 0.18424,0.0015 1.10262,0.04637 2.04084,0.09963 l 1.70585,0.09683 -0.72745,1.694453 c -0.4001,0.93195 -0.82344,1.895112 -0.94077,2.140362 -0.11732,0.24525 -0.27296,0.576337 -0.34586,0.73575 -0.32277,0.705831 -1.41734,2.964816 -2.14981,4.436791 -0.88487,1.778251 -1.77808,3.681163 -2.23955,4.771226 -0.27218,0.64292 -0.7444,1.72211 -1.10727,2.53053 -0.15383,0.3427 -0.14032,0.33863 -0.61312,0.1846 z m -40.376886,-1.96429 c 0,-0.0101 0.199799,-1.09881 0.403748,-2.200045 0.04769,-0.257512 0.117263,-0.618698 0.154603,-0.802635 0.03734,-0.183938 0.09928,-0.494959 0.137643,-0.691159 0.0726,-0.371317 0.218138,-1.021002 0.399544,-1.783635 0.05834,-0.24525 0.168414,-0.716798 0.244615,-1.047885 0.194784,-0.846325 0.511189,-2.097322 0.637207,-2.519385 0.27939,-0.935731 0.358327,-1.224544 0.572807,-2.09577 0.223953,-0.909707 0.437669,-1.496181 0.591026,-1.621879 0.04107,-0.03366 0.07466,-0.114753 0.07466,-0.180208 V 88.2271 l 1.473307,-0.235415 c 1.62436,-0.259552 1.965875,-0.30321 1.965875,-0.251311 0,0.01917 -0.128418,0.418281 -0.285374,0.886908 -0.421941,1.259805 -0.470019,1.438089 -0.782919,2.903231 -0.302854,1.418104 -0.601315,2.798353 -0.718342,3.322019 -0.06851,0.306563 -0.188618,0.848342 -0.266908,1.203954 -0.07829,0.355612 -0.200765,0.887358 -0.272167,1.181658 -0.184691,0.761246 -0.657157,2.866936 -0.691796,3.083196 -0.05008,0.31265 0.05205,0.27346 -1.381967,0.53027 -0.343918,0.0616 -0.75595,0.14246 -0.915626,0.17971 -0.35971,0.0839 -1.339941,0.2722 -1.339941,0.25739 z m 28.071766,-0.68622 c -0.7709,-0.14611 -2.36384,-0.39915 -2.51239,-0.39909 -0.0553,2e-5 -0.1005,-0.0108 -0.1005,-0.0241 0,-0.1162 0.71415,-2.007304 1.18687,-3.142871 0.22995,-0.552398 0.60754,-1.525593 0.83908,-2.162657 0.73915,-2.033683 1.42867,-3.713249 2.09692,-5.107829 0.15951,-0.332869 0.46146,-1.025143 0.67102,-1.538385 0.20955,-0.513243 0.46919,-1.133827 0.57699,-1.379077 l 0.19599,-0.445909 1.92869,-0.01162 1.92869,-0.01162 v 0.05873 c 0,0.08219 -0.27855,0.786116 -0.73586,1.859622 -0.35203,0.826381 -0.85915,2.08437 -1.56386,3.879406 -0.88719,2.259877 -1.01948,2.57123 -2.13138,5.016473 -0.9902,2.177602 -1.03607,2.27975 -1.24155,2.764634 -0.25922,0.611703 -0.34959,0.781113 -0.41382,0.775813 -0.0302,-0.002 -0.35641,-0.0617 -0.72489,-0.13151 z M 94.3359,99.392658 c 0.0049,-0.262237 0.6405,-2.259024 0.850857,-2.672927 0.152166,-0.299403 0.540202,-1.303299 0.868232,-2.246221 0.179171,-0.515025 0.425756,-1.217331 0.547968,-1.56068 0.122212,-0.34335 0.246714,-0.744668 0.276672,-0.891818 0.228597,-1.122851 0.854218,-3.153593 1.416836,-4.598998 l 0.158601,-0.407456 0.206604,-0.02605 c 0.64713,-0.0816 4.50788,-0.31982 4.54719,-0.280573 0.0549,0.05482 -0.0729,0.5622 -0.32755,1.299902 -0.13543,0.392399 -0.31489,0.970226 -0.3988,1.284059 -0.18449,0.689967 -0.67436,2.029782 -1.22199,3.342194 -0.22257,0.53339 -0.40467,0.980301 -0.40467,0.993134 0,0.01283 -0.0882,0.248631 -0.19605,0.523993 -0.2328,0.594478 -0.56952,1.57021 -0.64982,1.882977 -0.03149,0.122624 -0.102426,0.41358 -0.15765,0.646567 -0.214267,0.903989 -0.714259,2.618647 -0.785444,2.69358 -0.02294,0.02415 -0.636923,0.01737 -1.525444,-0.01685 l -1.487043,-0.05728 -0.781632,0.05281 c -0.429898,0.02904 -0.816806,0.06306 -0.859796,0.0756 -0.04668,0.01361 -0.07772,-8.69e-4 -0.07707,-0.03595 z M 9.5860722,89.234083 c 0.6673918,-1.360079 1.3237138,-2.427935 3.9279688,-6.390923 3.34198,-5.08561 7.065822,-9.192777 11.41183,-12.586539 3.012823,-2.352688 5.058771,-3.716587 7.749324,-5.165962 0.491312,-0.264665 1.295277,-0.697722 1.786588,-0.962349 4.597571,-2.476315 7.357058,-3.693295 11.79148,-5.20024 2.723447,-0.925506 7.991259,-2.393179 10.715556,-2.985476 2.848199,-0.619234 6.830029,-1.400987 8.512596,-1.671279 2.371248,-0.380922 7.510486,-1.030527 9.312589,-1.177121 0.196524,-0.01599 0.598507,-0.05714 0.893294,-0.09145 0.294787,-0.03431 0.948008,-0.09403 1.451602,-0.132722 0.503595,-0.03869 1.086469,-0.08952 1.295276,-0.112962 0.4027,-0.04521 1.177219,-0.10103 2.456559,-0.177043 0.429897,-0.02554 1.434853,-0.08584 2.233235,-0.134002 4.347076,-0.262213 7.652424,-0.262174 11.61282,1.36e-4 0.356201,0.02359 1.029522,0.06378 1.496268,0.08931 1.158657,0.06336 2.608217,0.17172 3.291446,0.246038 0.311795,0.03392 0.633376,0.05099 0.714636,0.03793 0.0812,-0.01305 0.51957,0.03712 0.97403,0.111481 0.45446,0.07437 1.26848,0.197184 1.80892,0.272928 1.00365,0.140663 2.17234,0.320509 3.32752,0.512059 0.3562,0.05906 0.76823,0.120024 0.91563,0.135466 0.14739,0.01544 0.48908,0.05685 0.7593,0.09203 0.70206,0.09138 2.62712,0.320416 2.9702,0.35338 2.30419,0.221391 6.82632,0.983673 9.9481,1.67692 1.79751,0.399172 4.36722,1.084241 5.9972,1.598817 0.45446,0.143473 1.11773,0.345031 1.47393,0.447908 0.3562,0.102877 0.76823,0.233326 0.91563,0.289888 0.14739,0.05656 0.38858,0.127286 0.53597,0.157163 l 0.26799,0.05432 0.18419,0.184102 c 0.22354,0.223435 0.2885,0.479421 0.17784,0.700877 l -0.0698,0.139709 0.0661,0.09415 c 0.2881,0.410644 -0.57017,1.907036 -1.80557,3.148 -0.21117,0.212125 -0.45511,0.465138 -0.54208,0.562251 -0.35359,0.394815 -0.67181,0.620131 -0.8225,0.582372 l -0.1032,-0.02586 -0.0535,0.128847 c -0.0554,0.133602 -0.40222,0.316377 -0.59942,0.315924 -0.0982,-2.25e-4 -0.80771,-0.252156 -1.03601,-0.36784 -0.24683,-0.125068 -2.50232,-0.700227 -3.99398,-1.01848 -0.23338,-0.04979 -0.55496,-0.118409 -0.71464,-0.152484 -0.15967,-0.03407 -0.72245,-0.124122 -1.25061,-0.200105 -0.52816,-0.07598 -1.42257,-0.216543 -1.98758,-0.312355 -1.67017,-0.283221 -2.09697,-0.345795 -3.0372,-0.445279 -0.49131,-0.05198 -1.00384,-0.112916 -1.13895,-0.135403 -0.13511,-0.02249 -0.54714,-0.08076 -0.91562,-0.129507 -0.36849,-0.04874 -1.21265,-0.170108 -1.87592,-0.269703 -3.46112,-0.519713 -6.28531,-0.903276 -8.2183,-1.116153 -2.630302,-0.289671 -6.404818,-0.588236 -8.151311,-0.64477 -0.931099,-0.03014 -3.585629,-0.132372 -5.86208,-0.225763 l -1.641266,-0.06733 -1.17261,0.04452 c -0.644935,0.02449 -1.524344,0.05606 -1.954242,0.07015 -0.429898,0.0141 -0.862028,0.03531 -0.960291,0.04714 -0.09826,0.01183 -1.434853,0.04054 -2.970202,0.06379 -2.770859,0.04197 -5.284164,0.131768 -6.141396,0.219418 -0.245656,0.02512 -0.81848,0.06642 -1.272944,0.09177 -3.341513,0.186446 -4.615228,0.269736 -5.449092,0.356323 -0.454464,0.04719 -1.137834,0.107668 -1.5186,0.134395 -0.869883,0.06106 -2.33305,0.204374 -2.94787,0.288739 -0.257939,0.03539 -0.750367,0.09637 -1.094285,0.135507 -0.343918,0.03913 -0.856446,0.109724 -1.13895,0.156865 -0.282504,0.04714 -0.805081,0.127574 -1.161282,0.178739 -2.817564,0.404717 -7.845535,1.667223 -11.746815,2.949583 -2.379231,0.78206 -5.260374,1.879386 -7.213348,2.747314 -0.4043,0.179675 -0.799814,0.231361 -1.109034,0.144928 l -0.189908,-0.05308 -0.578808,0.331391 c -0.318345,0.182265 -1.23203,0.707692 -2.030411,1.167614 -0.798382,0.459923 -1.672693,0.946743 -1.942915,1.081822 -3.807832,1.903473 -9.05073,5.468182 -12.997426,8.837105 -0.494106,0.421772 -2.570592,2.221904 -3.369824,2.921344 -0.281206,0.246094 -0.689194,0.613265 -0.90664,0.815936 -0.217446,0.202671 -0.540094,0.476722 -0.716996,0.609003 -0.176901,0.132282 -0.502531,0.425088 -0.723621,0.650681 -0.22109,0.225592 -0.551211,0.511689 -0.733602,0.63577 -0.50863,0.346022 -2.136081,1.996689 -2.451536,2.486508 -0.08687,0.134887 -0.209717,0.324938 -0.272992,0.422334 -0.20536,0.3161 -0.719048,0.818631 -1.091303,1.067601 -0.397808,0.26606 -0.546807,0.429396 -0.721815,0.791267 -0.06335,0.131 -0.2560889,0.388676 -0.4282992,0.572614 l -0.3131094,0.334431 z" id="path9"/><path style="fill:#000000" d="m 84.664902,197.91669 c -0.0737,-0.01 -0.284738,-0.0487 -0.46898,-0.0865 -0.184242,-0.0378 -0.691874,-0.0861 -1.128072,-0.10744 l -0.793087,-0.0387 -0.41286,-0.11181 c -0.870076,-0.23564 -1.261209,-0.30174 -2.022023,-0.34174 -1.110914,-0.0584 -1.818123,-0.18944 -3.099839,-0.57435 -1.629993,-0.48951 -3.515174,-2.25682 -5.7939,-5.43163 -0.673165,-0.93789 -1.20545,-2.06529 -1.44734,-3.06553 l -0.08627,-0.35673 v -1.82822 -1.82823 l 0.08976,-0.37902 c 0.52963,-2.23643 1.522955,-3.71682 3.817776,-5.68977 2.896691,-2.49041 4.829339,-3.37259 14.739349,-6.72791 1.252845,-0.42419 2.458792,-0.83513 2.679882,-0.9132 0.22109,-0.0781 0.623073,-0.21833 0.893294,-0.31168 1.169758,-0.40411 2.576186,-0.96499 4.868452,-1.94153 1.617986,-0.68928 2.770079,-1.15153 3.908166,-1.56806 2.16269,-0.79153 3.36163,-1.40274 5.22577,-2.66404 0.94631,-0.64029 2.07487,-1.39021 3.31429,-2.20232 1.27749,-0.83705 1.98027,-1.39283 2.99913,-2.37183 0.43425,-0.41727 0.6299,-0.67211 0.74168,-0.9661 l 0.0734,-0.19313 0.7093,0.56803 c 1.11448,0.89253 1.28864,1.03041 1.40711,1.11399 0.34551,0.24378 1.23523,0.92115 1.5378,1.1708 0.49981,0.41238 1.30858,1.0917 1.54471,1.29748 0.11055,0.0963 0.27134,0.22057 0.35732,0.2761 0.38406,0.24801 0.53577,0.67714 0.32697,0.92488 -0.0658,0.0781 -0.15124,0.20504 -0.18982,0.28211 -0.0427,0.0852 -0.12387,0.15761 -0.2072,0.18472 -0.0754,0.0245 -0.23617,0.12597 -0.35732,0.22544 -0.12115,0.0995 -0.39505,0.29682 -0.60867,0.43856 -0.21362,0.14174 -0.44338,0.30858 -0.51057,0.37074 -0.19183,0.1775 -0.5183,0.39588 -0.8164,0.54611 -0.15043,0.0758 -0.37874,0.20472 -0.50735,0.28646 -0.63385,0.40284 -2.64431,1.43991 -3.04771,1.57211 -0.12283,0.0402 -0.2994,0.11133 -0.39237,0.15795 -0.093,0.0466 -0.44471,0.19201 -0.78163,0.32307 -0.33693,0.13107 -1.09497,0.4333 -1.68454,0.67164 -1.39695,0.56471 -2.09491,0.84053 -2.59772,1.02656 -0.22503,0.0833 -0.53657,0.20536 -0.6923,0.27133 -0.15574,0.066 -0.5143,0.20647 -0.7968,0.31224 -1.05437,0.39475 -2.53162,1.0228 -4.60047,1.95588 -0.72152,0.32542 -1.370317,0.60094 -1.731237,0.7352 -0.190118,0.0707 -0.466264,0.18329 -0.613658,0.25016 -0.278158,0.12619 -1.694713,0.6733 -2.434226,0.94015 -0.233373,0.0842 -0.625305,0.23248 -0.870961,0.32947 -0.245656,0.097 -0.667737,0.25905 -0.937959,0.36014 -1.598787,0.59808 -3.485267,1.32779 -4.488802,1.7363 -2.208705,0.8991 -2.789402,1.1498 -3.873123,1.67213 -1.748134,0.84255 -3.735911,2.1265 -4.989213,3.22264 -0.778933,0.68125 -2.043819,2.21967 -2.481671,3.01834 -0.453603,0.8274 -0.634636,1.20693 -0.776336,1.62757 l -0.157725,0.4682 -0.0606,0.66886 c -0.11256,1.24235 -0.03078,1.76505 0.422102,2.69775 0.615997,1.26864 1.961653,2.61816 4.548906,4.56195 0.948678,0.71274 2.348,1.62559 3.057518,1.99458 0.171959,0.0894 0.388233,0.208 0.480608,0.2635 0.175732,0.10558 0.70154,0.31604 1.082656,0.43334 0.122828,0.0378 0.273572,0.0961 0.334986,0.12962 0.232429,0.12673 0.463969,0.19746 0.64644,0.19746 0.116972,0 0.270913,0.0435 0.404339,0.11437 0.151304,0.0803 0.276299,0.11233 0.419801,0.10751 0.2795,-0.009 0.305871,-0.003 0.215063,0.0495 -0.113047,0.0657 -4.014125,0.19427 -4.387857,0.1446 z m 105.674228,-1.75187 c -0.13432,-0.0543 -0.34848,-0.31402 -0.52333,-0.63468 -0.37859,-0.69426 -1.4288,-2.64571 -1.6632,-3.09049 -1.44052,-2.73334 -3.52521,-5.94902 -5.00105,-7.71422 -4.24577,-5.07824 -7.63636,-8.40443 -12.52944,-12.29143 -5.50103,-4.36995 -15.11171,-9.70365 -22.72176,-12.61004 -0.32472,-0.12401 -0.59769,-0.22548 -0.6066,-0.22548 -0.009,0 0.29426,0.31604 0.67369,0.7023 0.72732,0.74043 1.73029,1.85841 2.37021,2.64201 0.21029,0.25752 0.59428,0.72713 0.85332,1.04359 0.25904,0.31647 0.65187,0.81058 0.87296,1.09803 0.53337,0.69347 1.34974,1.63626 1.98741,2.29517 0.79374,0.82018 1.57145,1.78938 2.70149,3.36662 0.0966,0.13488 0.52731,0.67666 0.95704,1.20395 1.33612,1.63943 1.64619,2.03083 3.39123,4.28072 0.0856,0.11037 0.3484,0.39493 0.58401,0.63238 0.39937,0.40249 0.59081,0.61253 0.8704,0.95496 0.062,0.076 0.13135,0.22065 0.15405,0.32151 0.0227,0.10086 0.0836,0.2494 0.13544,0.33008 0.35798,0.55758 0.36348,0.74987 0.0291,1.0152 l -0.17673,0.14022 -0.16025,-0.0115 c -0.11556,-0.008 -0.18729,0.0155 -0.25728,0.0853 -0.15307,0.15281 -0.27859,0.15962 -0.63887,0.0346 -0.33427,-0.11595 -0.44702,-0.1694 -1.08276,-0.51331 l -0.34938,-0.18899 -0.73905,-0.10724 c -0.48962,-0.0711 -0.86916,-0.15385 -1.12456,-0.24534 -0.74293,-0.26615 -1.04402,-0.354 -1.45004,-0.42308 -0.4634,-0.0788 -1.65848,-0.4384 -2.06199,-0.62037 -0.14739,-0.0665 -0.51923,-0.19724 -0.8263,-0.29058 -0.7859,-0.23891 -2.73966,-0.91538 -3.64017,-1.26038 -2.82032,-1.08052 -5.89977,-2.32934 -8.82128,-3.57732 -0.50359,-0.21512 -1.18696,-0.50627 -1.5186,-0.64699 -2.03845,-0.86501 -3.64181,-1.64709 -5.98507,-2.91936 -0.57729,-0.31344 -1.64024,-0.89062 -2.36211,-1.28261 -3.42033,-1.85732 -6.82015,-3.77662 -8.10629,-4.57626 -7.12464,-4.42962 -11.66785,-7.81565 -16.10436,-12.00251 -0.43825,-0.41359 -0.96486,-0.93843 -1.17024,-1.16632 -0.5809,-0.64456 -0.74285,-0.79363 -1.22086,-1.12379 -1.86178,-1.2859 -2.70257,-2.41768 -2.70277,-3.63816 -6e-5,-0.31632 0.15278,-1.20332 0.23557,-1.36722 0.0352,-0.0696 0.0759,-0.22691 0.0905,-0.34953 0.0573,-0.48053 0.39724,-1.46111 0.83477,-2.40791 0.25771,-0.55767 0.87095,-1.42342 1.54602,-2.18259 0.19945,-0.22431 0.39814,-0.47712 0.44153,-0.56182 0.19924,-0.38886 0.64059,-0.93107 1.57724,-1.93763 0.56028,-0.60212 2.64943,-1.95654 4.54162,-2.9444 0.78757,-0.41117 0.89068,-0.4748 1.02205,-0.63074 0.0664,-0.0788 0.18316,-0.15539 0.26327,-0.17264 0.0792,-0.0171 0.39519,-0.14698 0.70226,-0.28872 2.1805,-1.00654 5.41352,-2.3177 5.71489,-2.3177 0.048,0 0.13412,0.0213 0.19133,0.0473 l 0.10401,0.0473 0.43344,-0.15664 c 0.2384,-0.0862 0.91108,-0.35677 1.49486,-0.60137 5.04755,-2.11489 7.22276,-2.74524 12.09358,-3.50458 2.91256,-0.45405 7.20836,-0.90382 10.02723,-1.04984 0.50359,-0.0261 1.3377,-0.077 1.85358,-0.11323 l 0.93796,-0.0658 4.04216,-0.0105 4.04215,-0.0105 1.04962,0.10303 c 1.11725,0.10967 3.30466,0.42507 4.26548,0.61503 3.66551,0.72469 6.47151,1.53409 8.12897,2.34481 0.885,0.43287 2.22687,1.22936 2.54589,1.51115 0.0491,0.0434 0.25012,0.16347 0.44665,0.26684 0.19652,0.10337 0.59851,0.33888 0.89329,0.52336 0.50209,0.3142 1.87898,1.07885 2.2779,1.26501 0.0983,0.0459 0.22696,0.10807 0.28598,0.13827 0.39972,0.20448 0.41934,0.88423 0.0292,1.01276 l -0.15532,0.0512 -0.20467,-0.0904 -0.20466,-0.0904 -1.10356,0.0438 c -0.60696,0.0241 -1.15718,0.0321 -1.22271,0.0179 -0.14132,-0.0307 -3.313,0.0476 -4.6823,0.11567 -1.80373,0.0896 -4.7,0.42526 -5.08446,0.58925 l -0.149,0.0635 0.26067,0.0942 c 0.14336,0.0518 0.35111,0.11674 0.46165,0.14424 0.46456,0.11559 1.4398,0.4241 1.91914,0.60711 0.796,0.30391 0.89547,0.34854 1.94436,0.87228 0.90978,0.45429 1.24442,0.62958 2.79773,1.4655 2.82532,1.52046 6.06017,3.73887 9.19515,6.30589 6.24345,5.11235 8.05486,6.9048 13.15826,13.02058 3.86478,4.63145 5.88172,7.74709 8.64549,13.35497 1.61986,3.2868 3.02916,7.09305 2.91149,7.86332 -0.0999,0.65396 -0.50013,0.66179 -0.92094,0.018 -0.56173,-0.85935 -2.08635,-2.79348 -3.15454,-4.00183 -2.77667,-3.14101 -8.15434,-7.80427 -11.52857,-9.99702 -2.10865,-1.37032 -5.30954,-2.99261 -7.70396,-3.90457 -1.24695,-0.47492 -3.58378,-1.304 -3.67543,-1.304 -0.0495,0 0.4306,0.53096 0.60075,0.66445 1.85672,1.4567 3.59297,3.56959 5.42667,6.60386 1.59733,2.64313 2.43629,4.24165 3.44027,6.55486 1.33942,3.08608 2.89054,7.5832 3.78989,10.98791 l 0.12858,0.48675 0.13556,0.13964 c 0.14766,0.15209 0.16905,0.26781 0.0747,0.40416 l -0.0609,0.088 0.0823,0.33443 c 0.43653,1.77347 1.29453,7.03296 1.42211,8.71752 0.026,0.34335 0.069,0.89516 0.0957,1.22625 0.0266,0.33108 0.0516,0.8829 0.0555,1.22625 l 0.007,0.62427 -0.0757,0.16679 c -0.0416,0.0917 -0.12615,0.21714 -0.1878,0.27869 l -0.11209,0.1119 -0.19185,-0.003 c -0.10552,-0.002 -0.23316,-0.0195 -0.28363,-0.0399 z m -6.34634,-19.23164 c -0.3277,-1.39058 -0.45455,-1.77671 -0.96474,-2.9367 -0.27313,-0.62098 -3.04314,-6.09585 -3.41551,-6.75067 -0.0976,-0.17167 -0.35443,-0.64322 -0.57068,-1.04788 -0.21624,-0.40467 -0.64336,-1.17274 -0.94915,-1.70684 l -0.55598,-0.97108 -0.74393,-0.95102 c -2.52948,-3.23363 -3.36649,-4.16111 -5.4987,-6.09311 -0.52704,-0.47756 -1.18788,-1.08456 -1.46851,-1.34889 -0.28064,-0.26433 -0.72373,-0.62371 -0.98465,-0.79862 -0.54821,-0.36751 -1.21861,-0.86608 -1.71234,-1.27345 l -0.34464,-0.28436 -0.0278,-0.14789 c -0.0362,-0.1927 0.0693,-0.39692 0.24187,-0.46829 l 0.13198,-0.0546 0.92333,0.14003 c 0.50782,0.077 1.04733,0.17765 1.1989,0.22363 0.41707,0.12652 1.37895,0.37031 2.37481,0.60191 2.14458,0.49875 2.84988,0.68685 5.09178,1.35797 2.98678,0.89411 5.56537,1.83986 7.65251,2.80672 0.37665,0.17448 0.69519,0.31724 0.70786,0.31724 0.053,0 2.46038,1.22153 3.11846,1.58236 1.3067,0.71649 1.96278,1.13184 4.23198,2.6792 0.33777,0.23032 0.61414,0.40699 0.61414,0.39259 0,-0.0249 -0.32634,-0.45017 -1.38153,-1.80034 -0.50227,-0.64267 -1.16026,-1.41628 -2.27881,-2.67922 -0.38196,-0.43127 -1.05626,-1.19358 -1.49844,-1.69403 -1.8445,-2.08758 -3.43012,-3.71511 -5.53842,-5.6848 -1.43174,-1.33761 -1.86425,-1.662 -5.2481,-3.93619 -0.60186,-0.4045 -2.1847,-1.50969 -3.51744,-2.45599 -4.04438,-2.87169 -4.23901,-3.00729 -4.98488,-3.47292 -1.44842,-0.90421 -2.54447,-1.48743 -6.63901,-3.53269 -4.78456,-2.38993 -5.26433,-2.60213 -7.70872,-3.4095 -1.64044,-0.54184 -1.7011,-0.55804 -2.08883,-0.55804 -0.35768,0 -0.38393,-0.0129 -0.27378,-0.13439 l 0.0676,-0.0745 -0.18246,-0.0821 c -0.4027,-0.1813 -0.42367,-0.67499 -0.0319,-0.75234 0.0559,-0.011 0.24233,-0.0517 0.41429,-0.0904 0.17196,-0.0387 0.44874,-0.0703 0.61508,-0.0702 0.16633,6e-5 0.44772,-0.0384 0.6253,-0.0855 0.29617,-0.0786 1.17511,-0.28127 1.77448,-0.40921 0.13511,-0.0289 0.56725,-0.15091 0.96029,-0.27125 2.30064,-0.70442 5.77735,-1.51284 6.6884,-1.55521 0.0911,-0.004 -1.25114,-0.52682 -1.66362,-0.64771 -0.87671,-0.25693 -3.05106,-0.50793 -4.40649,-0.50866 -0.53529,-2.9e-4 -0.92164,-0.0294 -1.49605,-0.11286 l -0.77439,-0.11246 -1.2285,0.0682 c -1.93444,0.10741 -3.52593,0.20444 -5.50514,0.33564 -0.60093,0.0398 -1.60188,0.10168 -4.34364,0.26839 -0.41762,0.0254 -1.02562,0.0656 -1.35111,0.0893 -0.32549,0.0237 -0.86817,0.0631 -1.20595,0.0875 -0.33777,0.0244 -0.80508,0.0648 -1.03845,0.0898 -0.23337,0.0249 -0.93684,0.0956 -1.56327,0.15697 -1.84424,0.1807 -2.42477,0.24027 -2.59055,0.26585 -0.086,0.0133 -0.58846,0.0729 -1.11662,0.13252 -3.07939,0.34762 -4.78488,0.70889 -9.82623,2.08146 -0.3562,0.097 -1.21041,0.32703 -1.89825,0.51123 -3.17999,0.85156 -4.67931,1.39847 -8.66495,3.16073 -0.54044,0.23896 -1.22381,0.54001 -1.5186,0.66901 -1.8689,0.8178 -3.55061,1.64189 -3.81883,1.87135 -0.0369,0.0315 -0.13978,0.091 -0.22873,0.13224 -0.70578,0.32698 -2.62981,2.92455 -2.62981,3.55043 0,0.048 -0.0603,0.26088 -0.13393,0.47311 -0.38932,1.12175 -0.25439,2.05214 0.44955,3.09986 1.30322,1.93967 6.79486,6.81428 10.97885,9.74528 0.16281,0.11406 0.53721,0.38081 0.83199,0.59279 0.29479,0.21197 0.95806,0.6838 1.47394,1.0485 1.29282,0.91396 1.85877,1.34192 2.94787,2.22909 1.95517,1.59267 4.35264,3.0205 7.32607,4.3631 0.86921,0.39247 1.09902,0.51425 1.28318,0.67995 0.0922,0.083 0.19304,0.15082 0.22412,0.15082 0.0311,0 0.13202,0.0512 0.22433,0.11386 0.0923,0.0626 0.24972,0.1427 0.34981,0.17795 0.10009,0.0353 0.29038,0.16302 0.42288,0.28391 0.1325,0.12089 0.31641,0.24408 0.40869,0.27375 0.1936,0.0623 0.63677,0.31509 0.63677,0.3633 0,0.0849 0.34415,0.25875 0.51285,0.25901 0.16539,2.5e-4 0.24786,0.0286 0.49211,0.16905 0.0491,0.0283 0.15967,0.0819 0.24565,0.11916 0.086,0.0373 0.27345,0.16623 0.4166,0.28654 0.16458,0.13833 0.33483,0.2375 0.46308,0.26974 0.11155,0.028 0.27545,0.10026 0.36424,0.16049 0.0888,0.0602 0.18012,0.10951 0.20298,0.10951 0.0641,0 0.4801,0.26829 0.63001,0.40628 0.16069,0.14792 0.33277,0.21799 0.53527,0.21799 h 0.1498 l 0.26044,0.2223 c 0.24153,0.20615 0.55125,0.35739 0.73191,0.35739 0.0417,0 0.10059,0.0297 0.13077,0.066 0.0615,0.074 0.826,0.46898 0.90822,0.46928 0.029,1e-4 0.14325,0.0602 0.25379,0.13358 0.11055,0.0734 0.23349,0.13348 0.27321,0.13358 0.0397,1.1e-4 0.21056,0.11086 0.37965,0.24611 0.16909,0.13525 0.38783,0.2672 0.48609,0.29321 0.0983,0.026 0.22891,0.0743 0.29032,0.10721 0.53291,0.286 0.8017,0.44935 0.91563,0.55647 0.13606,0.12793 1.41758,0.76956 1.64027,0.82125 0.0669,0.0155 0.19534,0.0782 0.28539,0.13916 0.09,0.061 0.18639,0.11092 0.21411,0.11092 0.0277,0 0.12148,0.0482 0.20836,0.10716 0.0869,0.0589 0.25736,0.13672 0.37885,0.17284 0.19982,0.0594 0.47124,0.19882 0.98019,0.50342 0.12078,0.0723 0.24738,0.10716 0.39079,0.10766 0.13641,4.7e-4 0.28788,0.0397 0.42432,0.10996 0.34012,0.1751 0.88553,0.42586 0.92624,0.42586 0.0206,0 0.1343,0.0621 0.25272,0.13794 l 0.21531,0.13793 0.27991,0.0244 c 0.15396,0.0134 0.33017,0.0587 0.39158,0.10049 0.1658,0.11297 0.39085,0.17891 0.6106,0.17891 0.13726,0 0.24928,0.0357 0.37702,0.12007 0.13201,0.0872 0.25611,0.12544 0.4535,0.13969 0.19925,0.0144 0.32563,0.0537 0.47368,0.14748 0.11106,0.0703 0.25974,0.12785 0.3304,0.12785 0.0707,0 0.21243,0.0486 0.31507,0.10798 0.10264,0.0594 0.37755,0.18277 0.61093,0.27418 0.23337,0.0914 0.57268,0.25597 0.75402,0.36568 0.3955,0.2393 0.77407,0.41391 1.16656,0.53808 0.15968,0.0505 0.43101,0.14261 0.60297,0.20466 0.17196,0.062 0.36351,0.11323 0.42567,0.11375 0.1236,0.001 0.64646,0.21126 1.1376,0.4574 0.17196,0.0862 0.42319,0.20289 0.55831,0.25935 0.13511,0.0565 0.299,0.13922 0.36421,0.18392 0.25246,0.17305 0.93106,-0.046 0.93106,-0.30058 0,-0.0569 -0.0202,-0.11584 -0.0448,-0.13105 -0.0247,-0.0152 -0.0326,-0.0763 -0.0177,-0.13566 l 0.0272,-0.10801 -0.26302,-0.11387 c -0.1912,-0.0828 -0.30528,-0.16966 -0.4178,-0.31818 -0.19491,-0.25726 -0.6537,-0.72879 -0.70909,-0.72879 -0.023,0 -0.0635,-0.0657 -0.09,-0.146 -0.0265,-0.0803 -0.17384,-0.27595 -0.32731,-0.43476 -0.15347,-0.15882 -0.31664,-0.34694 -0.36259,-0.41805 -0.0459,-0.0711 -0.23772,-0.29184 -0.42616,-0.4905 -0.18845,-0.19867 -0.36855,-0.42141 -0.40022,-0.49498 -0.0317,-0.0736 -0.11765,-0.19397 -0.19105,-0.26755 -0.27174,-0.27242 -0.62694,-0.71404 -0.68405,-0.85051 -0.0324,-0.0774 -0.12104,-0.20864 -0.19699,-0.29167 -0.52619,-0.57517 -0.63448,-0.71299 -0.73175,-0.9313 -0.0764,-0.1715 -0.23097,-0.3677 -0.51397,-0.65249 -0.22258,-0.22399 -0.43949,-0.47481 -0.48204,-0.55739 -0.10299,-0.1999 -0.41791,-0.60321 -0.6221,-0.7967 -0.0906,-0.0858 -0.20414,-0.23248 -0.25234,-0.32586 -0.0482,-0.0934 -0.24675,-0.34083 -0.44122,-0.54988 -0.23241,-0.24983 -0.4017,-0.48176 -0.49398,-0.67674 -0.097,-0.20488 -0.24785,-0.40722 -0.48776,-0.65407 -0.19105,-0.19659 -0.39996,-0.46225 -0.46425,-0.59037 -0.0826,-0.16455 -0.31356,-0.42524 -0.7867,-0.88788 -0.36839,-0.36021 -0.6698,-0.68108 -0.6698,-0.71306 0,-0.0947 -0.26884,-0.37199 -0.45034,-0.46443 -0.0927,-0.0472 -0.1802,-0.12268 -0.19453,-0.16775 -0.041,-0.12894 -0.29351,-0.36448 -0.46856,-0.43704 -0.19814,-0.0821 -0.65135,-0.51951 -0.76474,-0.73799 -0.0941,-0.18127 -0.26078,-0.32787 -0.474,-0.41683 -0.12862,-0.0537 -0.42822,-0.32107 -1.84342,-1.64536 -0.32822,-0.30714 -0.55388,-0.47901 -0.74124,-0.56455 -0.17911,-0.0818 -0.41213,-0.25535 -0.6955,-0.51808 -0.23438,-0.2173 -0.6425,-0.54516 -0.90694,-0.72859 -0.56889,-0.3946 -0.75755,-0.54774 -0.87135,-0.7073 l -0.0843,-0.11812 0.0532,-0.15536 0.0532,-0.15535 -0.19652,-0.009 -0.19651,-0.009 -0.14596,-0.16857 -0.14595,-0.16857 0.0936,-0.0654 c 0.0515,-0.036 0.20478,-0.0692 0.3407,-0.0738 0.13592,-0.005 0.38782,-0.0318 0.55978,-0.0605 0.58027,-0.0968 1.12118,-0.0259 1.85359,0.24305 0.19111,0.0702 0.64137,0.15442 1.3176,0.24652 1.11978,0.15251 2.22495,0.37986 3.37219,0.69372 0.88232,0.24137 3.82492,1.11411 4.57813,1.35781 0.29479,0.0954 0.83746,0.26242 1.20595,0.37121 1.7112,0.50519 2.77229,0.86239 3.46151,1.16525 0.40533,0.17812 0.81736,0.34886 0.91563,0.37944 0.0983,0.0306 0.29925,0.13015 0.44664,0.22128 0.1474,0.0911 0.41874,0.2222 0.60298,0.29127 0.18424,0.0691 0.54602,0.22956 0.80396,0.35666 0.6549,0.32271 1.0297,0.49028 2.23412,0.99885 4.29362,1.81299 7.19626,3.45657 13.37619,7.57408 4.07534,2.71529 5.59496,3.93047 8.64142,6.91021 0.38143,0.37308 0.6962,0.67908 0.69949,0.68001 0.003,9.3e-4 -0.0425,-0.20398 -0.10171,-0.45536 z M 46.632913,160.57512 c -1.337733,-0.0456 -7.008795,-0.49764 -7.994981,-0.6372 -0.429897,-0.0608 -1.093168,-0.15339 -1.473935,-0.20565 -2.333313,-0.3203 -4.661285,-1.01082 -6.498713,-1.92765 -1.950222,-0.97312 -5.299414,-3.53487 -6.022621,-4.60663 -0.142999,-0.21191 -0.472728,-0.64574 -0.623142,-0.81988 l -0.131911,-0.15271 0.03421,0.1076 c 0.01881,0.0592 -0.127411,-0.0843 -0.324944,-0.31885 -0.351234,-0.41705 -0.605134,-0.66498 -0.680984,-0.66498 -0.02083,0 -0.137295,-0.17558 -0.2588,-0.39017 -0.718077,-1.26821 -1.007827,-1.91392 -1.995929,-4.44794 -0.337589,-0.86576 -0.759724,-2.26595 -0.941044,-3.12136 -0.27457,-1.29535 -0.341681,-1.70496 -0.423737,-2.58627 l -0.08719,-0.93641 -2.02e-4,-1.81133 -2.02e-4,-1.81132 0.111938,-1.08708 c 0.06157,-0.5979 0.14314,-1.23758 0.181275,-1.42152 0.03813,-0.18394 0.09714,-0.51502 0.131112,-0.73575 0.104684,-0.68005 0.534845,-2.2822 0.915874,-3.4112 0.07036,-0.20846 0.202002,-0.63988 0.292549,-0.9587 0.379527,-1.33635 0.440574,-1.54685 0.633668,-2.18496 0.858669,-2.8376 2.598659,-7.01533 3.844191,-9.22991 0.966169,-1.71787 2.327392,-3.88211 3.463923,-5.50737 1.724479,-2.46603 2.290367,-3.18825 4.978778,-6.3542 1.008391,-1.18751 2.16558,-2.42163 3.529361,-3.76401 2.606324,-2.565408 2.904401,-2.841354 5.366296,-4.967858 0.626422,-0.541083 1.36004,-1.177368 1.630261,-1.413967 2.60534,-2.281169 7.10356,-5.441113 11.009848,-7.734284 2.26498,-1.329647 3.572385,-2.148033 5.985069,-3.746428 3.626846,-2.402772 4.872786,-3.141926 6.789034,-4.027594 1.276008,-0.589757 2.556984,-1.259501 3.282855,-1.716403 0.22109,-0.139166 0.558089,-0.345383 0.748887,-0.458259 0.190797,-0.112876 0.369503,-0.248427 0.397123,-0.301223 0.210273,-0.401938 0.757628,-0.926683 1.467111,-1.406509 0.464736,-0.314302 1.161046,-0.907926 1.161046,-0.989825 0,-0.02343 0.04815,-0.117409 0.106992,-0.208851 0.05885,-0.09144 0.130435,-0.240549 0.159086,-0.331346 0.02865,-0.0908 0.08603,-0.174795 0.127498,-0.186664 0.358002,-0.102454 3.453535,-0.773019 4.22922,-0.916148 2.233385,-0.412105 7.267829,-1.126101 10.697195,-1.517101 2.733739,-0.311688 7.218432,-0.693117 9.714572,-0.826238 0.68784,-0.03668 1.36116,-0.07719 1.49627,-0.09001 0.13511,-0.01282 0.86608,-0.05334 1.62437,-0.09004 0.75829,-0.0367 1.96424,-0.107027 2.67988,-0.156289 0.71564,-0.04926 2.19558,-0.149712 3.28875,-0.223223 2.83059,-0.190344 4.80082,-0.342451 5.80641,-0.448271 2.00724,-0.211226 2.61157,-0.263966 3.46379,-0.302291 l 0.62758,-0.02822 0.13172,-0.0886 c 0.20502,-0.137906 0.5955,-0.331708 0.90462,-0.44898 0.15488,-0.05876 0.33577,-0.133901 0.40199,-0.166986 0.0662,-0.03308 0.25103,-0.125178 0.4107,-0.204651 0.15968,-0.07947 0.51217,-0.258565 0.78331,-0.397982 0.27114,-0.139417 0.71711,-0.361354 0.99104,-0.493194 0.27392,-0.13184 0.5636,-0.294346 0.64373,-0.361126 l 0.14568,-0.121417 v -0.161598 c 0,-0.195918 -0.14577,-0.369019 -0.3473,-0.412414 -0.0767,-0.01653 -0.21083,-0.06606 -0.29795,-0.110068 -0.0871,-0.04401 -0.23787,-0.09444 -0.33499,-0.112064 -0.0971,-0.01763 -0.24952,-0.06864 -0.33868,-0.113359 -0.0892,-0.04472 -0.28009,-0.100781 -0.42431,-0.124577 -0.14422,-0.02379 -0.35267,-0.07598 -0.46321,-0.115966 -0.11055,-0.03999 -0.41203,-0.09075 -0.66997,-0.112815 -0.56992,-0.04875 -1.3773,-0.155547 -1.66858,-0.220714 -0.11789,-0.02638 -0.50923,-0.07812 -0.86965,-0.11499 -0.36041,-0.03687 -0.81609,-0.09503 -1.01261,-0.129246 -0.19653,-0.03422 -0.49802,-0.07474 -0.66998,-0.09004 -0.17195,-0.0153 -0.63423,-0.07643 -1.02728,-0.13583 -0.39305,-0.0594 -1.08647,-0.160214 -1.54094,-0.224022 -0.45446,-0.06381 -1.08758,-0.155176 -1.40693,-0.203039 -2.19403,-0.328832 -6.22384,-0.808853 -7.25802,-0.864557 -0.2825,-0.01522 -0.92567,-0.05583 -1.42927,-0.09026 -0.50359,-0.03443 -1.14676,-0.07507 -1.42927,-0.09032 -0.2825,-0.01525 -0.95582,-0.07598 -1.49626,-0.134966 -0.54045,-0.05898 -1.324314,-0.128474 -1.741929,-0.154426 -0.417615,-0.02595 -0.910043,-0.06621 -1.094285,-0.08945 -0.184242,-0.02325 -0.958058,-0.08442 -1.719591,-0.135936 l -1.384605,-0.09367 -3.059532,0.02381 c -1.682743,0.01309 -3.56201,0.02365 -4.176149,0.02346 -2.015064,-6.35e-4 -3.232376,0.07881 -5.248102,0.342512 -0.650988,0.08516 -1.434853,0.174836 -1.741923,0.199273 -4.458047,0.354776 -9.948389,1.430237 -13.89072,2.720946 -3.514801,1.150736 -10.117811,3.817343 -12.193462,4.924295 -0.429898,0.229266 -1.06302,0.536839 -1.406938,0.683495 -2.647522,1.128974 -4.129226,1.972866 -6.490287,3.696489 -2.7161,1.982807 -4.327439,3.287954 -5.770172,4.673702 -0.208808,0.20056 -0.520344,0.494593 -0.692303,0.653407 -0.171959,0.158814 -0.533743,0.494835 -0.803965,0.746713 -0.270221,0.251878 -0.740781,0.67166 -1.045688,0.93285 -1.756574,1.504716 -2.243069,1.957573 -4.054984,3.774614 -1.777336,1.782363 -2.854155,2.942297 -4.305153,4.63745 -2.4162,2.822765 -4.017288,5.212222 -5.990683,8.940469 -0.136304,0.25751 -0.428395,0.80932 -0.649093,1.22625 -0.220697,0.41692 -0.868749,1.68107 -1.440116,2.80922 -1.343015,2.65175 -1.32907,2.62626 -2.017201,3.68771 -1.463655,2.25771 -2.928348,4.74435 -3.711242,6.30065 -0.0987,0.1962 -0.226554,0.41282 -0.284124,0.48138 -0.05757,0.0686 -0.248188,0.41972 -0.423596,0.78034 -0.175408,0.36063 -0.382675,0.73595 -0.460595,0.83405 -0.21729,0.27356 -0.273259,0.37558 -0.402909,0.73441 -0.06595,0.18253 -0.187557,0.44311 -0.270234,0.57907 -0.08268,0.13596 -0.240962,0.44224 -0.351743,0.68062 -0.110781,0.23839 -0.293995,0.56295 -0.407144,0.72125 -0.113148,0.1583 -0.304813,0.49754 -0.425921,0.75386 -0.121109,0.25633 -0.290521,0.55803 -0.376472,0.67044 -0.218571,0.28587 -0.363468,0.58808 -0.42535,0.88715 -0.03578,0.17292 -0.119971,0.3532 -0.260307,0.55739 -0.262054,0.38129 -1.284119,2.5616 -1.395649,2.97725 -0.122796,0.45764 -0.564384,1.50971 -0.605678,1.443 -0.01928,-0.0311 -0.01115,-0.0631 0.01854,-0.073 0.02907,-0.01 0.0409,-0.0369 0.02629,-0.0605 -0.03056,-0.0494 -0.01772,-0.10833 0.362938,-1.66623 0.155802,-0.63765 0.315536,-1.24966 0.354962,-1.36003 0.03943,-0.11036 0.09143,-0.29095 0.115569,-0.40131 0.02414,-0.11037 0.172571,-0.62205 0.329855,-1.13707 0.157284,-0.51502 0.397075,-1.31766 0.53287,-1.78364 0.135795,-0.46597 0.369881,-1.26861 0.520193,-1.78363 1.685826,-5.77628 4.251197,-11.39349 9.255689,-20.266546 0.981682,-1.74054 1.696826,-2.865787 2.933135,-4.615155 0.433306,-0.613125 1.067805,-1.536156 1.409997,-2.05118 0.957472,-1.441066 1.340941,-1.981933 2.481732,-3.500384 0.580396,-0.772536 1.413438,-1.906259 1.851204,-2.519384 2.805704,-3.929599 4.118493,-5.265885 10.077606,-10.257978 2.30619,-1.931952 4.243145,-3.382693 6.48616,-4.858007 3.991015,-2.625038 8.104075,-4.647631 13.963856,-6.866711 2.575651,-0.975391 5.080722,-1.720888 9.305554,-2.76929 l 1.600894,-0.397265 -0.32795,-0.02541 c -0.180373,-0.01398 -0.257603,-0.02904 -0.171624,-0.03347 1.105347,-0.05699 1.889529,-0.107296 2.255567,-0.144711 0.857438,-0.08764 3.370789,-0.177435 6.141396,-0.219404 1.535349,-0.02326 2.87194,-0.05196 2.970202,-0.06379 0.09826,-0.01183 0.530393,-0.03304 0.960291,-0.04714 0.429898,-0.01409 1.309307,-0.04566 1.954242,-0.07015 l 1.17261,-0.04452 1.641266,0.06733 c 2.276451,0.09339 4.930981,0.195623 5.86208,0.225763 1.007794,0.03262 1.733795,0.07993 4.109152,0.267787 1.718589,0.135913 2.597399,0.217873 4.042159,0.376983 1.93299,0.212877 4.75718,0.59644 8.2183,1.116153 0.66327,0.0996 1.50743,0.220962 1.87592,0.269703 0.36848,0.04874 0.78051,0.10702 0.91562,0.129507 0.13511,0.02249 0.64764,0.08342 1.13895,0.135403 0.94023,0.09948 1.36703,0.162058 3.0372,0.445279 0.56501,0.09581 1.45942,0.236372 1.98758,0.312355 0.52816,0.07598 1.09094,0.166031 1.25061,0.200105 0.15968,0.03408 0.48126,0.102693 0.71464,0.152484 1.49166,0.318253 3.74715,0.893412 3.99398,1.01848 0.2283,0.115684 0.93786,0.367615 1.03601,0.36784 0.1972,4.53e-4 0.54399,-0.182322 0.59942,-0.315924 l 0.0535,-0.128847 0.1032,0.02586 c 0.15069,0.03776 0.46891,-0.187557 0.8225,-0.582372 0.087,-0.09711 0.33091,-0.350126 0.54208,-0.562251 1.2354,-1.240964 2.09367,-2.737356 1.80557,-3.148 l -0.0661,-0.09415 0.0698,-0.139709 c 0.11066,-0.221456 0.0457,-0.477442 -0.17784,-0.700877 l -0.18419,-0.184102 -0.26799,-0.05432 c -0.14739,-0.02988 -0.38858,-0.100601 -0.53597,-0.157163 -0.1474,-0.05656 -0.55943,-0.187011 -0.91563,-0.289888 -0.3562,-0.102877 -1.01947,-0.304435 -1.47393,-0.447908 -3.18213,-1.004585 -6.51474,-1.785376 -10.92052,-2.558542 -1.34198,-0.235502 -4.08245,-0.626654 -5.02478,-0.717195 -0.34308,-0.03296 -2.26814,-0.261998 -2.9702,-0.35338 -0.27022,-0.03517 -0.61191,-0.07658 -0.7593,-0.09203 -0.1474,-0.01544 -0.55943,-0.0764 -0.91563,-0.135466 -1.15518,-0.19155 -2.32387,-0.371396 -3.32752,-0.512059 -0.54044,-0.07574 -1.35446,-0.198562 -1.80892,-0.272928 -0.45446,-0.07437 -0.89278,-0.124532 -0.97403,-0.111481 -0.0813,0.01305 -0.402841,-0.004 -0.714636,-0.03793 -0.683229,-0.07432 -2.132789,-0.182673 -3.291446,-0.246038 -0.466746,-0.02553 -1.140067,-0.06571 -1.496268,-0.08931 -3.960396,-0.26231 -7.265744,-0.262349 -11.61282,-1.36e-4 -0.798382,0.04816 -1.803338,0.108459 -2.233235,0.134002 -1.27934,0.07601 -2.053859,0.131832 -2.456559,0.177043 -0.208807,0.02344 -0.791681,0.07428 -1.295276,0.112962 -0.503594,0.03869 -1.156815,0.09841 -1.451602,0.132722 -0.294787,0.03431 -0.69677,0.07546 -0.893294,0.09145 -1.802103,0.146594 -6.941341,0.796199 -9.312589,1.177121 -1.682567,0.270292 -5.664397,1.052045 -8.512596,1.671279 -2.724297,0.592297 -7.992109,2.05997 -10.715556,2.985476 -4.434422,1.506945 -7.193909,2.723925 -11.79148,5.20024 -0.491311,0.264627 -1.295276,0.697684 -1.786588,0.962349 -2.690553,1.449375 -4.736501,2.813274 -7.749324,5.165962 -4.346008,3.393762 -8.06985,7.500929 -11.41183,12.586539 -2.576581,3.920877 -3.210635,4.950353 -3.9087036,6.346332 -0.083504,0.166989 -0.2733541,0.42517 -0.4479079,0.609119 -0.1666342,0.175603 -0.3741506,0.430365 -0.4611476,0.566139 -0.086997,0.135773 -0.2100006,0.280761 -0.2733413,0.322195 -0.063341,0.04143 -0.1870514,0.197787 -0.2749129,0.347452 -0.087861,0.149665 -0.2731419,0.393632 -0.4117344,0.54215 -0.1385924,0.148518 -0.471003,0.600235 -0.7386901,1.003816 -0.267687,0.403581 -0.5597218,0.814048 -0.6489661,0.912148 -0.089244,0.0981 -0.2475901,0.328858 -0.3518795,0.512795 -0.2509731,0.442646 -0.5353702,0.840513 -0.8920202,1.247921 -0.1607208,0.183595 -0.3409854,0.444451 -0.4005878,0.579681 -0.3102502,0.703918 -0.4330186,0.915883 -0.6933168,1.197046 -0.1514172,0.163555 -0.2960907,0.303916 -0.3214968,0.311914 -0.030448,0.0096 -0.030969,0.002 -0.00153,-0.02229 0.024566,-0.02026 0.044665,-0.0571 0.044665,-0.08187 0,-0.02476 0.1943745,-0.456181 0.4319433,-0.958703 1.1966626,-2.531266 1.8634527,-3.995489 3.3198593,-7.290172 0.530827,-1.200837 1.6836127,-3.539474 2.1320798,-4.325315 0.1819484,-0.318824 0.4887526,-0.860603 0.6817866,-1.203953 2.43632,-4.333468 5.304189,-8.146835 8.59765,-11.432177 4.043767,-4.0338 6.819196,-6.765533 7.213693,-7.100122 1.755162,-1.488624 4.32453,-3.416402 6.096731,-4.574333 4.755642,-3.107268 5.513483,-3.546183 8.508625,-4.927893 0.319352,-0.147323 0.811781,-0.37467 1.094285,-0.505215 4.575929,-2.114537 7.970319,-3.272232 12.596812,-4.296283 2.461726,-0.544891 7.370742,-1.35471 10.316177,-1.701815 2.017431,-0.237744 5.583127,-0.587283 6.789034,-0.665517 0.380766,-0.0247 0.923442,-0.06449 1.205946,-0.08842 0.282505,-0.02393 1.166866,-0.06567 1.965247,-0.09274 0.798381,-0.02708 1.873684,-0.06355 2.389561,-0.08105 0.515877,-0.0175 1.842419,-0.01807 2.94787,-0.0013 l 2.009911,0.03055 4.667461,0.272911 c 9.651955,0.56436 9.652122,0.564373 10.44923,0.80539 0.52774,0.15957 0.329394,0.05857 -0.609214,-0.310222 -0.511175,-0.200846 -1.100251,-0.432548 -1.309059,-0.514894 -1.746384,-0.688703 -4.189694,-1.487818 -6.320054,-2.067054 -0.540443,-0.146944 -1.223813,-0.340679 -1.5186,-0.430523 -1.937437,-0.590486 -3.490563,-0.958591 -5.442307,-1.289876 -1.038777,-0.17632 -1.578786,-0.255931 -3.334306,-0.49156 -0.719779,-0.09661 -2.513766,-0.240636 -3.624094,-0.29095 -0.549286,-0.02489 -1.27004,-0.06528 -1.601675,-0.08975 -2.105239,-0.15534 -6.905653,-0.225197 -9.200928,-0.133894 -1.692898,0.06734 -6.724015,0.414214 -7.761275,0.535104 -0.411042,0.04791 -1.119183,0.118617 -1.573646,0.157135 -0.454463,0.03852 -1.157932,0.108912 -1.563264,0.156433 -0.405332,0.04752 -0.978157,0.107548 -1.272944,0.133395 -0.294787,0.02585 -0.968107,0.09689 -1.496267,0.157861 -0.528161,0.06098 -1.151233,0.132335 -1.384606,0.158576 -2.718121,0.305632 -9.357381,1.429629 -12.863432,2.177721 -0.552726,0.117936 -1.185848,0.249362 -1.406938,0.292058 -0.221091,0.0427 -0.494688,0.114107 -0.607996,0.158692 -0.113307,0.04458 -0.294199,0.0937 -0.401982,0.109157 -0.282489,0.0405 -0.722962,0.143244 -1.133928,0.264504 -0.196524,0.05799 -0.542623,0.118259 -0.769108,0.133938 -0.4062,0.02812 -0.62249,0.08239 -0.972815,0.2441 -0.09826,0.04536 -0.249006,0.09712 -0.334985,0.115025 -0.08598,0.01791 -0.29034,0.09063 -0.454134,0.161607 -0.163793,0.07098 -0.354735,0.129287 -0.424314,0.129578 -0.163965,6.86e-4 -0.51552,0.09769 -0.792147,0.218585 -0.120446,0.05264 -0.308502,0.115729 -0.417903,0.140206 -0.109401,0.02448 -0.282192,0.08505 -0.383981,0.13461 -0.101789,0.04956 -0.335814,0.119112 -0.520056,0.154561 -0.184242,0.03545 -0.430982,0.114045 -0.548312,0.174656 -0.237627,0.122756 -0.828922,0.362912 -1.305273,0.530139 -0.171959,0.06037 -0.426198,0.151352 -0.564976,0.202187 -0.138779,0.05083 -0.321828,0.101033 -0.406777,0.111552 -0.08495,0.01052 -0.236917,0.06112 -0.337704,0.112458 -0.100788,0.05133 -0.203397,0.09333 -0.22802,0.09333 -0.137121,0 -0.548724,0.202957 -0.755103,0.372335 -0.130902,0.107432 -0.321843,0.219779 -0.424314,0.249659 -0.102471,0.02988 -0.286806,0.109127 -0.409634,0.176103 -0.122828,0.06698 -0.322431,0.158642 -0.443561,0.203699 -0.12113,0.04506 -0.35227,0.159771 -0.513644,0.25492 -0.161374,0.09515 -0.440728,0.24282 -0.620788,0.328158 -0.180059,0.08534 -0.873478,0.45083 -1.540932,0.812207 -0.667453,0.361376 -1.2236,0.657191 -1.235883,0.657366 -0.01228,1.75e-4 -0.09268,0.05357 -0.178659,0.118666 -0.08598,0.06509 -0.304071,0.189808 -0.484647,0.277148 -0.212038,0.102557 -0.442458,0.265898 -0.650584,0.461188 -0.177244,0.166313 -0.448288,0.389578 -0.602319,0.496144 l -0.280056,0.193756 0.05536,-0.104574 c 0.263239,-0.497261 2.286573,-2.81413 3.44196,-3.941301 2.60014,-2.536642 5.027512,-4.291292 8.92716,-6.453085 0.552726,-0.306407 1.636642,-0.912641 2.408702,-1.347188 4.584255,-2.580203 9.088615,-4.172546 16.082482,-5.685343 4.090429,-0.884773 11.071636,-1.933325 14.694685,-2.207089 0.503595,-0.03805 1.247262,-0.09892 1.652594,-0.135267 1.441924,-0.129291 3.400875,-0.243638 5.404428,-0.315463 l 2.032244,-0.07285 3.729502,0.02414 c 2.051226,0.01328 4.111385,0.04526 4.578131,0.07107 1.457161,0.08057 2.920795,0.180704 3.617841,0.24751 0.368483,0.03532 1.001605,0.07668 1.406938,0.09192 0.405332,0.01524 0.988206,0.06709 1.295276,0.115223 0.307069,0.04813 1.271827,0.167586 2.143905,0.265454 0.872078,0.09787 1.907183,0.226158 2.300232,0.28509 0.393049,0.05893 1.06637,0.160134 1.496267,0.224895 0.783719,0.118062 3.020794,0.529279 3.774167,0.693763 0.22109,0.04827 0.67332,0.129166 1.004956,0.179766 1.935605,0.29533 5.706331,1.157207 9.178601,2.097959 1.8224,0.493749 2.61374,0.729038 6.05206,1.799465 0.52816,0.164428 1.29193,0.398208 1.69726,0.519511 2.05497,0.614987 7.02037,2.348038 8.3523,2.915165 0.13511,0.05753 0.49689,0.208381 0.80396,0.335227 1.6938,0.699679 3.65202,1.612555 4.42181,2.061342 1.31926,0.769127 2.06796,1.348156 3.162,2.445402 l 0.86177,0.864298 0.51194,0.73575 c 0.9072,1.303787 1.19877,1.832398 1.50036,2.720043 l 0.21967,0.646567 -0.006,0.356727 -0.006,0.356727 0.11691,0.397784 0.11691,0.397783 -0.0492,0.917647 -0.0492,0.917648 -0.10423,0.334431 c -0.0573,0.183938 -0.11709,0.484926 -0.13282,0.668863 -0.19381,2.266997 -1.89885,5.527556 -3.92659,7.508851 -2.93763,2.870347 -7.46521,5.851066 -11.68471,7.692593 -0.3562,0.155458 -1.01947,0.44869 -1.47393,0.651627 -0.45447,0.202937 -1.06966,0.470285 -1.36711,0.594107 -0.29744,0.123822 -0.90041,0.384275 -1.33994,0.578785 -0.43952,0.19451 -1.33176,0.575266 -1.98275,0.846125 -0.65098,0.270859 -1.49191,0.625062 -1.86871,0.787118 -1.61068,0.692716 -3.39138,1.411828 -4.80866,1.941908 -0.83523,0.312388 -1.71959,0.65249 -1.96524,0.755783 -1.56733,0.659028 -6.649742,2.509686 -9.558251,3.480446 -3.149856,1.051313 -6.231358,2.173627 -7.771657,2.830514 -0.904074,0.385558 -1.048865,0.430125 -1.741923,0.536165 -0.546051,0.08355 -0.805851,0.178642 -1.033698,0.378364 -0.08416,0.07377 -0.197549,0.134473 -0.251967,0.134885 -0.316143,0.0024 -0.880761,0.16744 -1.173223,0.34295 l -0.310324,0.18623 -0.421225,0.07224 c -0.487065,0.08353 -0.676495,0.153703 -0.902552,0.334347 l -0.162495,0.129851 -0.547681,0.09329 c -0.610814,0.104043 -0.813427,0.174012 -0.988398,0.341327 -0.08236,0.07876 -0.233511,0.140519 -0.489576,0.200045 l -0.37043,0.08611 -0.226875,0.171009 -0.226875,0.171009 -0.333169,0.05399 c -0.503364,0.08156 -0.643938,0.132677 -0.863833,0.314088 l -0.201301,0.16607 -0.233321,0.0309 c -0.29423,0.03897 -0.50747,0.127002 -0.72102,0.297673 l -0.167705,0.134032 -0.390603,0.06779 c -0.43801,0.07601 -0.706333,0.180114 -0.833946,0.323551 -0.04731,0.05318 -0.198057,0.128253 -0.334985,0.166828 -0.136928,0.03857 -0.382783,0.149659 -0.546344,0.246854 -0.216012,0.128364 -0.409156,0.19958 -0.705873,0.260271 -0.224669,0.04595 -0.482779,0.129157 -0.573578,0.184897 -0.150331,0.09228 -0.611989,0.336347 -1.192377,0.630369 -0.122828,0.06222 -0.29367,0.1254 -0.37965,0.14039 l -0.156326,0.02726 0.290321,-0.193237 c 1.093678,-0.727948 2.730895,-1.477568 3.61784,-1.656473 l 0.334985,-0.06757 0.893294,-0.444681 0.893294,-0.444682 1.004956,-0.341975 c 0.552725,-0.188085 1.065253,-0.368502 1.138949,-0.400925 0.0737,-0.03242 0.656571,-0.251741 1.295277,-0.487374 0.638705,-0.235633 1.281876,-0.474275 1.42927,-0.530315 0.147393,-0.05604 0.414837,-0.157531 0.594319,-0.225535 0.179482,-0.068 0.317977,-0.131982 0.307767,-0.142176 -0.01021,-0.01019 -0.177158,0.04273 -0.370995,0.117609 -0.657675,0.254055 -0.79815,0.306826 -1.960361,0.736428 -0.638706,0.236092 -1.281877,0.47623 -1.429271,0.53364 -0.147393,0.05741 -0.619722,0.224178 -1.04962,0.370595 -0.868858,0.295921 -1.395372,0.505902 -1.697259,0.67689 -0.597295,0.338306 -1.073558,0.541184 -1.465256,0.624167 -0.632903,0.134084 -1.112185,0.320691 -2.085587,0.812016 -0.909022,0.45883 -2.142883,1.228625 -2.154929,1.344441 -0.0021,0.02044 -0.01881,0.05054 -0.03708,0.06689 -0.01827,0.01635 -0.01876,0.0046 -0.0011,-0.02601 0.04184,-0.07258 0.0028,-0.07057 -0.119874,0.0061 -0.05441,0.03404 -0.178626,0.07589 -0.27604,0.093 -0.218721,0.03843 -0.403486,0.13074 -0.594905,0.297206 -0.08069,0.07017 -0.181188,0.12803 -0.223323,0.128569 -0.122643,0.0016 -0.455145,0.167168 -0.612374,0.304989 -0.101882,0.08931 -0.214872,0.136176 -0.381469,0.158239 -0.313119,0.04147 -0.510031,0.127735 -0.716369,0.313841 -0.09349,0.08432 -0.230883,0.184756 -0.305319,0.223185 -0.07444,0.03843 -0.1563,0.108973 -0.181921,0.156766 -0.02562,0.04779 -0.138406,0.127446 -0.250635,0.177009 -0.112229,0.04956 -0.264248,0.14068 -0.337819,0.202483 -0.07357,0.0618 -0.169428,0.11237 -0.213015,0.11237 -0.117169,0 -0.491515,0.209852 -0.683926,0.383395 -0.0925,0.08343 -0.18817,0.151696 -0.212594,0.151696 -0.02442,0 -0.119837,0.06663 -0.212028,0.148077 -0.166289,0.1469 -0.564013,0.381791 -1.041109,0.614867 -0.1365,0.06668 -0.276805,0.155675 -0.311788,0.197757 -0.03498,0.04208 -0.204688,0.142456 -0.377123,0.223052 -0.217758,0.101781 -0.393411,0.228847 -0.575083,0.416014 l -0.261565,0.269474 -0.232701,0.06754 c -0.127986,0.03715 -0.311768,0.128341 -0.408406,0.202657 -0.09664,0.07432 -0.271175,0.207139 -0.387862,0.295161 -0.116686,0.08802 -0.212157,0.178478 -0.212157,0.201011 0,0.02253 -0.105521,0.0908 -0.23449,0.151701 -0.226309,0.106868 -0.609812,0.379038 -0.748134,0.530949 -0.35484,0.3897 -0.499814,0.508203 -0.67781,0.554046 -0.106233,0.02736 -0.245569,0.0853 -0.309634,0.128754 -0.340354,0.230856 -0.578261,0.432887 -0.752028,0.638616 -0.106566,0.12617 -0.32658,0.3174 -0.488919,0.42494 -0.454695,0.30123 -0.754968,0.54391 -0.783316,0.63308 -0.01416,0.0445 -0.13833,0.17034 -0.27593,0.27956 -0.302664,0.24023 -0.407573,0.34187 -0.754518,0.731 -0.326553,0.36625 -0.427948,0.46811 -0.927821,0.93209 -0.215514,0.20004 -0.5371,0.50686 -0.714635,0.68181 -0.177534,0.17495 -0.389224,0.36272 -0.47042,0.41726 -0.0812,0.0545 -0.196147,0.17589 -0.255445,0.26967 -0.123432,0.1952 -0.567105,0.6527 -0.742234,0.76534 -0.06491,0.0418 -0.212869,0.20229 -0.328796,0.35673 -0.115926,0.15445 -0.25938,0.31803 -0.318785,0.36353 -0.05941,0.0455 -0.250003,0.28127 -0.423549,0.52394 -0.173546,0.24268 -0.333043,0.44123 -0.354438,0.44123 -0.09934,0 -0.357169,0.28961 -0.400344,0.44968 -0.03435,0.12736 -0.0854,0.19329 -0.190448,0.24597 -0.276964,0.13891 -0.820515,0.70082 -1.498041,1.54863 -0.08172,0.10226 -0.215196,0.22039 -0.296622,0.26253 -0.220389,0.11404 -0.398143,0.31081 -0.527874,0.58436 -0.06369,0.13428 -0.209104,0.34 -0.323151,0.45715 -0.114046,0.11716 -0.274593,0.31794 -0.35677,0.44619 -0.264014,0.41204 -1.683542,2.10398 -2.855059,3.40295 -0.575012,0.63757 -0.786645,0.93661 -1.533805,2.16729 -0.907313,1.49446 -2.692176,5.01472 -3.43539,6.77558 -0.06159,0.14592 -0.389651,0.8683 -0.729023,1.60527 -1.376874,2.99 -2.046253,5.2467 -2.319836,7.82098 l -0.09167,0.86256 v 1.30974 c 0,0.72036 0.02161,1.66658 0.04803,2.10273 l 0.04803,0.79298 0.284399,1.11478 c 0.15642,0.61312 0.322636,1.22513 0.36937,1.36002 0.04673,0.13489 0.121357,0.39573 0.165829,0.57968 0.04447,0.18394 0.23672,0.71567 0.42722,1.18165 0.645624,1.57924 0.597365,1.47647 1.13186,2.41057 0.452167,0.79022 1.709433,1.90091 2.706368,2.39085 2.577502,1.26671 4.666837,1.70545 8.664951,1.81958 0.773816,0.0221 2.321447,0.0707 3.439181,0.10803 3.092473,0.10329 4.650218,0.0919 8.977604,-0.0654 0.724685,-0.0264 1.759789,-0.055 2.300232,-0.0637 0.98832,-0.0159 1.938541,-0.058 4.042155,-0.17891 0.626422,-0.036 1.772072,-0.087 2.545888,-0.11335 0.773815,-0.0263 1.557681,-0.0679 1.741923,-0.0924 0.184242,-0.0245 1.018355,-0.14472 1.853585,-0.26716 0.835229,-0.12246 1.639496,-0.2264 1.787258,-0.23097 l 0.268659,-0.008 0.169375,0.0998 0.169375,0.0998 h 0.396239 0.396239 l 0.07431,0.0742 c 0.04875,0.0487 0.06598,0.11574 0.05011,0.195 l -0.0242,0.12081 0.108728,0.10198 c 0.0598,0.0561 0.12079,0.17401 0.135534,0.26206 0.01474,0.088 0.0854,0.27325 0.15701,0.41157 0.07161,0.13832 0.130203,0.28218 0.130203,0.31968 0,0.0976 0.379427,0.52799 0.739606,0.83892 0.513844,0.44358 1.023754,0.66137 2.342258,1.00042 l 0.424315,0.10911 0.625306,-0.11687 c 0.343918,-0.0643 0.816247,-0.15247 1.04962,-0.19596 1.075374,-0.20041 2.748568,-1.02771 3.595508,-1.77778 0.581522,-0.51501 1.183541,-1.2792 1.275068,-1.61855 0.140581,-0.52121 0.809284,-0.82303 1.197759,-0.54061 0.162128,0.11787 0.490178,0.62184 0.545694,0.83833 0.404712,1.57824 1.005917,2.54541 1.738269,2.7964 0.881759,0.30219 0.920454,0.3028 1.764255,0.0275 0.845635,-0.2759 1.039217,-0.40184 2.00737,-1.30593 0.915154,-0.8546 1.317563,-1.29242 1.909026,-2.07702 0.309657,-0.41076 0.700529,-0.78661 0.85949,-0.82644 0.599819,-0.15029 1.143348,0.22302 1.211286,0.83196 l 0.02693,0.2414 -0.137425,0.4405 c -0.07558,0.24228 -0.19922,0.7038 -0.274746,1.02559 -0.07553,0.3218 -0.172945,0.66605 -0.216486,0.76501 -0.04354,0.099 -0.10517,0.28959 -0.136955,0.42362 -0.03178,0.13403 -0.101673,0.34401 -0.155308,0.46664 -0.05363,0.12262 -0.121164,0.31731 -0.150065,0.43263 -0.05825,0.23245 -0.431869,0.94521 -0.622278,1.18715 -0.0673,0.0855 -0.206387,0.26772 -0.309089,0.40491 -0.755067,1.00865 -0.999261,1.29641 -1.379956,1.62614 -0.404074,0.34997 -0.715686,0.57039 -1.300262,0.91973 -0.225714,0.13489 -0.577448,0.34799 -0.781632,0.47355 -0.660058,0.4059 -1.33443,0.71178 -2.492816,1.13069 -0.282504,0.10216 -0.674069,0.24583 -0.870143,0.31927 -0.196075,0.0734 -0.467413,0.16048 -0.602974,0.19341 -0.503561,0.12235 -1.465015,0.37877 -1.854403,0.49457 -0.22109,0.0658 -0.484781,0.13604 -0.58598,0.15621 -0.101199,0.0202 -0.30219,0.075 -0.446647,0.12175 -0.144457,0.0468 -0.377876,0.10945 -0.518709,0.13923 -0.140833,0.0298 -0.267639,0.0728 -0.281791,0.0957 -0.01415,0.0229 -0.09093,0.0416 -0.17062,0.0416 -0.07969,0 -0.405114,0.0596 -0.723165,0.1324 -0.318051,0.0728 -0.793771,0.16255 -1.057155,0.19939 -0.263384,0.0368 -0.6138,0.0982 -0.778701,0.13642 -0.164901,0.0382 -0.633377,0.10832 -1.041058,0.15588 -0.40768,0.0476 -0.881328,0.11586 -1.052552,0.15178 -0.171223,0.0359 -0.532404,0.0876 -0.802626,0.11489 -0.270221,0.0273 -0.863145,0.10797 -1.317608,0.17935 -0.454464,0.0714 -1.107685,0.15244 -1.451603,0.18012 -0.343918,0.0277 -0.806198,0.0792 -1.027288,0.11445 -0.538035,0.0858 -3.018639,0.28507 -3.550843,0.28518 -0.233373,4e-5 -0.635356,0.0198 -0.893294,0.0439 -0.257939,0.0241 -1.021705,0.0877 -1.697259,0.14136 l -1.228279,0.0975 -4.801455,0.0301 -4.801454,0.0301 -1.406938,0.11769 -1.406938,0.11769 -4.399473,-0.007 c -2.41971,-0.004 -4.851702,-0.0222 -5.404428,-0.041 z m 9.022269,-13.76758 c -0.167568,-0.031 -0.21917,-0.16513 -0.08933,-0.23217 0.169381,-0.0875 0.398991,-0.17579 0.456944,-0.17579 0.03692,0 0.0623,-0.0411 0.06025,-0.0976 l -0.0035,-0.0976 0.178659,-0.0384 c 0.132647,-0.0285 0.207545,-0.0216 0.290823,0.0269 l 0.112164,0.0654 0.222821,-0.0422 c 0.122552,-0.0232 0.685101,-0.12182 1.250109,-0.21914 l 1.027288,-0.17695 0.934064,-4e-5 0.934063,-4e-5 0.830192,-0.13152 c 0.751278,-0.11902 1.857449,-0.21903 3.264418,-0.29514 0.282504,-0.0153 1.116617,-0.12797 1.853585,-0.25041 l 1.339941,-0.22262 1.17527,-0.0389 1.175269,-0.0389 2.161074,-0.35902 c 2.276944,-0.37827 2.299035,-0.38271 2.300996,-0.46311 6.83e-4,-0.028 0.06098,-0.12979 0.133994,-0.22613 0.07301,-0.0963 0.132751,-0.19278 0.132751,-0.21431 0,-0.0215 0.05835,-0.15657 0.129678,-0.30008 0.07132,-0.14352 0.143571,-0.30464 0.160552,-0.35805 0.07229,-0.22738 1.533161,-2.45073 1.941909,-2.95546 0.326362,-0.40299 0.990559,-1.05008 1.236787,-1.20492 0.102338,-0.0644 0.199232,-0.13828 0.215318,-0.16426 0.01609,-0.026 0.133346,-0.0999 0.260576,-0.16421 0.127231,-0.0643 0.291627,-0.16274 0.365323,-0.2187 0.308986,-0.23462 1.989379,-0.96423 2.389562,-1.03752 0.13511,-0.0248 0.530285,-0.15653 0.878167,-0.29284 0.840389,-0.32931 1.172397,-0.38346 2.351049,-0.38346 0.516788,0 1.068424,-0.0224 1.225858,-0.0498 0.799217,-0.13895 2.265132,0.14698 3.029205,0.59084 0.522367,0.30345 1.314666,1.13696 1.314666,1.38304 0,0.12122 0.02874,0.10605 0.287161,-0.15163 0.718995,-0.71692 1.260035,-1.02321 2.660709,-1.50627 1.521296,-0.52466 1.629312,-0.53864 2.859417,-0.37019 l 0.514521,0.0705 0.669093,0.32226 0.669094,0.32227 0.03113,-0.13829 c 0.06686,-0.29702 0.180141,-0.86253 0.215278,-1.07471 0.02031,-0.12263 0.08008,-0.34335 0.132831,-0.4905 0.120717,-0.33675 0.280853,-0.87082 0.5816,-1.9397 0.04485,-0.15942 0.154545,-0.54067 0.24376,-0.84723 0.08922,-0.30656 0.191105,-0.66282 0.226422,-0.79169 0.03532,-0.12887 0.09459,-0.30689 0.131727,-0.39561 0.0371,-0.0887 0.0675,-0.18837 0.0675,-0.22144 0,-0.0731 0.17374,-0.47284 0.37613,-0.86539 0.0822,-0.15942 0.16263,-0.3645 0.17875,-0.45575 0.0161,-0.0912 0.0788,-0.22457 0.1392,-0.29628 0.0672,-0.0798 0.10989,-0.18642 0.10989,-0.27474 0,-0.10643 0.0399,-0.18195 0.15197,-0.28745 l 0.15197,-0.14309 0.24554,-0.7094 c 0.13505,-0.39017 0.25898,-0.7425 0.2754,-0.78294 l 0.0298,-0.0735 -0.46087,-0.0287 c -0.25347,-0.0158 -1.877849,-0.0373 -3.609722,-0.0479 -3.037648,-0.0185 -3.718156,-0.0353 -4.324629,-0.10689 -0.155361,-0.0183 -0.376451,-0.0179 -0.491312,0.001 -0.357597,0.0588 -0.66786,0.0431 -0.902148,-0.0458 l -0.22529,-0.0855 -0.574544,0.0725 -0.574545,0.0724 -0.07161,-0.0593 c -0.161859,-0.13411 -0.04367,-0.23307 0.37576,-0.31463 0.135507,-0.0263 0.303622,-0.0776 0.373589,-0.1138 0.06997,-0.0362 0.170139,-0.0661 0.222604,-0.0663 0.05246,-2.4e-4 0.205935,-0.0519 0.341046,-0.11484 0.13511,-0.0629 0.355392,-0.13475 0.489515,-0.15962 0.134123,-0.0249 0.335114,-0.0907 0.446647,-0.14637 0.119598,-0.0597 0.329236,-0.11247 0.511027,-0.12874 0.202603,-0.0181 0.405815,-0.0732 0.592958,-0.1606 0.156596,-0.0732 0.359573,-0.1465 0.451061,-0.16298 0.09149,-0.0165 0.199532,-0.047 0.240099,-0.0679 0.04057,-0.0209 0.269727,-0.0694 0.509246,-0.1079 0.261379,-0.042 0.546538,-0.12179 0.713248,-0.19961 0.176198,-0.0822 0.390115,-0.14041 0.585039,-0.15909 0.169004,-0.0162 0.427874,-0.0765 0.575267,-0.13397 l 0.267988,-0.10452 0.736968,-0.0277 c 0.492467,-0.0185 1.011104,-0.0728 1.563264,-0.16355 l 0.826294,-0.13583 1.33994,0.0286 c 0.91267,0.0195 1.43252,0.0493 1.63026,0.0935 0.15968,0.0357 0.37051,0.0655 0.46852,0.0664 0.20839,0.002 0.98331,0.15549 1.2734,0.2525 0.11055,0.037 0.26129,0.0829 0.33499,0.10206 0.70991,0.18464 1.486,0.82293 1.90213,1.56442 0.0812,0.14476 0.0806,0.91339 -10e-4,1.24854 -0.12838,0.52697 -0.71174,1.37833 -1.64985,2.40778 -2.30343,2.52768 -4.22801,6.00188 -5.62984,10.16283 -0.176893,0.52508 -0.357744,1.02673 -0.401883,1.11477 -0.108825,0.21707 -0.151841,0.39656 -0.140914,0.58796 0.0067,0.11728 -0.02268,0.1981 -0.109396,0.30099 l -0.11855,0.14066 -0.185854,-0.001 -0.185855,-0.001 -0.210736,-0.15437 c -0.280694,-0.20561 -0.337358,-0.30276 -0.416027,-0.71324 -0.08641,-0.45086 -0.35311,-1.05767 -0.681039,-1.54952 -0.140232,-0.21033 -0.876182,-0.73579 -1.260418,-0.89993 -0.797183,-0.34055 -1.840663,-0.12587 -2.880873,0.59269 -0.591509,0.4086 -0.715324,0.52437 -1.656422,1.54878 -1.291712,1.40606 -1.399945,1.49616 -1.892242,1.57531 -0.465585,0.0749 -0.725913,-0.0514 -0.788087,-0.38229 -0.01583,-0.0842 -0.116812,-0.28421 -0.224409,-0.4444 -0.107596,-0.16019 -0.19563,-0.32537 -0.19563,-0.36706 0,-0.11259 -0.289757,-0.66834 -0.468308,-0.89822 -0.08572,-0.11036 -0.231487,-0.29872 -0.323921,-0.41859 -0.275495,-0.35724 -1.052519,-0.93484 -1.486689,-1.10513 -0.986079,-0.38676 -2.7202,0.0956 -4.242127,1.18003 -1.127091,0.80309 -1.347464,0.99074 -1.852619,1.57751 -0.778357,0.90411 -1.109303,1.3277 -1.352782,1.73148 -0.217428,0.36057 -0.814422,1.53924 -0.814422,1.60793 0,0.0302 -0.07297,0.11895 -0.16215,0.19712 l -0.16215,0.14214 -0.232933,-0.0149 c -0.306403,-0.0196 -0.376294,0.0386 -0.347925,0.28992 l 0.02164,0.19166 -0.107662,0.12496 -0.107662,0.12496 -0.310374,0.0599 c -0.4249,0.082 -0.54414,0.076 -0.792789,-0.0401 l -0.214428,-0.10014 -0.336797,0.0426 c -0.233733,0.0296 -0.537151,0.0255 -0.991519,-0.0132 -0.485043,-0.0414 -0.731711,-0.0434 -0.951789,-0.008 -0.217119,0.0352 -1.166713,0.0308 -3.528511,-0.0164 -1.777294,-0.0355 -4.065558,-0.055 -5.085029,-0.0433 -3.948079,0.0454 -5.751312,0.0503 -6.047039,0.0161 l -0.307625,-0.0355 -1.032316,0.1486 c -1.142708,0.16449 -1.62398,0.20679 -1.858612,0.16337 z m 15.230661,-7.05091 c -0.273962,-0.0583 -0.551589,-0.20581 -0.788891,-0.41923 l -0.230582,-0.20738 -0.147507,-0.34496 -0.147506,-0.34495 0.0038,-0.40132 0.0038,-0.40132 0.09868,-0.24525 c 0.253243,-0.62938 0.80849,-1.26374 1.592841,-1.81977 1.648876,-1.1689 3.072141,-1.64188 3.983814,-1.32388 0.17578,0.0613 0.343204,0.11147 0.372054,0.11147 0.02885,0 0.118332,0.0502 0.19885,0.11148 0.08052,0.0613 0.181589,0.11148 0.224604,0.11148 0.269943,0 0.676956,0.34833 0.896903,0.76759 l 0.123652,0.2357 -0.005,0.33443 c -0.02405,1.62269 -2.240632,3.5272 -4.328321,3.71892 -0.14865,0.0137 -0.430037,0.0553 -0.625306,0.0926 -0.368387,0.0704 -0.954803,0.082 -1.225995,0.0243 z m 1.885407,-1.31657 c 0.115765,-0.015 0.440245,-0.10427 0.721068,-0.19846 l 0.510588,-0.17125 0.494491,-0.34134 c 0.873069,-0.60266 1.666556,-1.58795 1.498047,-1.86016 -0.386728,-0.6247 -2.913839,0.84884 -3.521405,2.05331 l -0.157647,0.31253 0.02717,0.13563 0.02717,0.13563 0.09502,-0.0193 c 0.05226,-0.0106 0.189733,-0.0316 0.305498,-0.0466 z m -1.215437,-11.07831 -4.354808,-0.26105 -0.803964,-0.11548 c -1.37268,-0.19719 -2.874422,-0.37785 -3.559701,-0.42824 -3.476068,-0.2556 -7.690408,-1.36116 -9.434408,-2.47494 -0.575748,-0.36769 -1.691595,-1.31351 -2.286417,-1.93803 -1.379628,-1.4485 -2.154624,-3.45992 -2.174089,-5.64261 l -0.0072,-0.80264 0.167233,-0.9587 c 0.09198,-0.52729 0.2285,-1.22959 0.303382,-1.56068 0.07488,-0.33109 0.164256,-0.72774 0.19861,-0.88145 0.265767,-1.18913 1.608993,-4.03763 2.599313,-5.5122 0.985495,-1.46739 1.737786,-2.32725 2.894304,-3.30815 0.146713,-0.12444 0.819476,-0.69677 1.495029,-1.27185 2.752977,-2.343523 4.081354,-3.348794 6.699705,-5.070111 3.537527,-2.325589 4.250237,-2.700652 8.262968,-4.348376 0.626423,-0.257224 1.510784,-0.628294 1.965247,-0.8246 3.266461,-1.41095 5.778168,-2.261539 8.39282,-2.842226 0.284783,-0.06325 0.66853,-0.152796 0.852772,-0.198997 0.604909,-0.151687 2.83204,-0.57948 3.383351,-0.649882 l 0.234489,-0.02994 v 0.111762 c 0,0.06147 -0.0336,0.139301 -0.07466,0.172961 -0.153357,0.125698 -0.367073,0.712172 -0.591026,1.621879 -0.21448,0.871226 -0.293417,1.160039 -0.572807,2.09577 -0.126018,0.422063 -0.442423,1.67306 -0.637207,2.519385 -0.0762,0.331087 -0.186278,0.802635 -0.244615,1.047885 -0.181406,0.762633 -0.32694,1.412318 -0.399544,1.783635 -0.03836,0.1962 -0.100303,0.507221 -0.137643,0.691159 -0.03734,0.183937 -0.106911,0.545123 -0.154603,0.802635 -0.203949,1.101231 -0.403748,2.189951 -0.403748,2.200041 0,0.0148 0.980231,-0.17348 1.339941,-0.25739 0.159676,-0.0373 0.571708,-0.11812 0.915626,-0.17971 1.434019,-0.25681 1.33189,-0.21762 1.381967,-0.53027 0.03464,-0.21626 0.507105,-2.321946 0.691796,-3.083192 0.0714,-0.2943 0.193877,-0.826046 0.272167,-1.181658 0.07829,-0.355612 0.198399,-0.897391 0.266908,-1.203954 0.117027,-0.523666 0.415488,-1.903915 0.718342,-3.322019 0.168523,-0.7891 0.349204,-1.572162 0.396117,-1.716749 0.01989,-0.06131 0.184296,-0.564027 0.365339,-1.117144 l 0.329169,-1.005668 0.491312,-0.07574 c 0.583712,-0.08998 3.476297,-0.343594 3.901303,-0.342057 0.38566,0.0014 2.302645,-0.11663 3.349153,-0.206201 0.450307,-0.03854 0.828083,-0.06075 0.839502,-0.04935 0.01142,0.0114 -0.04915,0.198734 -0.134598,0.416295 -0.543051,1.382663 -1.184783,3.465884 -1.413049,4.587107 -0.02996,0.14715 -0.15446,0.548468 -0.276672,0.891818 -0.122212,0.343349 -0.368797,1.045655 -0.547968,1.56068 -0.32803,0.942922 -0.716066,1.946818 -0.868232,2.246221 -0.229746,0.452052 -0.915429,2.642534 -0.845145,2.699898 0.0085,0.007 0.176321,-0.0073 0.372846,-0.03172 0.196525,-0.02442 1.010539,-0.03876 1.80892,-0.03187 0.798382,0.0069 1.701875,0.01476 2.007764,0.01749 l 0.556161,0.005 0.120894,-0.379023 c 0.16395,-0.514004 0.521115,-1.799714 0.644133,-2.318725 0.05522,-0.232987 0.126165,-0.523943 0.157648,-0.646567 0.0803,-0.312767 0.41702,-1.288499 0.64982,-1.882977 0.10783,-0.275362 0.19605,-0.511159 0.19605,-0.523993 0,-0.01283 0.1821,-0.459744 0.40467,-0.993134 0.54763,-1.312412 1.0375,-2.652227 1.22199,-3.342194 0.0839,-0.313833 0.26337,-0.89166 0.3988,-1.284059 0.13543,-0.3924 0.27209,-0.843883 0.30369,-1.003295 0.0705,-0.355712 0.0698,-0.355204 0.4972,-0.356044 0.1911,-3.76e-4 0.75388,-0.03055 1.25061,-0.06706 1.7897,-0.131538 3.00942,-0.169003 6.11622,-0.187863 l 3.15849,-0.01917 -0.20266,0.459992 c -0.11147,0.252996 -0.37407,0.879918 -0.58357,1.393161 -0.20949,0.513242 -0.5114,1.205516 -0.67091,1.538385 -0.66825,1.39458 -1.35777,3.074146 -2.09692,5.107829 -0.23154,0.637064 -0.60913,1.610259 -0.83908,2.162657 -0.47272,1.135567 -1.18687,3.026673 -1.18687,3.142873 0,0.0133 0.0463,0.0242 0.10292,0.0242 0.14411,0 1.65086,0.23776 2.53046,0.39929 0.40559,0.0745 0.75221,0.11796 0.77323,0.097 0.0209,-0.0209 0.19516,-0.39698 0.38713,-0.835691 0.42424,-0.969477 0.80487,-1.81652 1.32027,-2.938013 0.83572,-1.818531 1.17096,-2.610376 2.01052,-4.748928 0.70471,-1.795036 1.21183,-3.053025 1.56386,-3.879406 0.46639,-1.094817 0.73586,-1.777706 0.73586,-1.864818 v -0.06393 l 1.08312,0.03911 c 0.59572,0.02151 2.18857,0.0314 3.53968,0.02197 2.61459,-0.01824 4.89078,0.05163 4.89078,0.150128 0,0.208114 -1.60409,3.936469 -3.06031,7.113027 -1.10021,2.399964 -1.54167,3.427094 -2.15611,5.016473 -0.17066,0.441449 -0.5168,1.254118 -0.76921,1.805928 -0.621,1.35761 -0.85764,1.92667 -0.81598,1.96221 0.0192,0.0164 0.18565,0.0641 0.3699,0.10605 0.51389,0.11703 1.58394,0.4102 2.21825,0.60776 0.7127,0.22198 0.64734,0.23197 0.80676,-0.12319 0.36287,-0.80842 0.83509,-1.88761 1.10727,-2.53053 0.46147,-1.090063 1.35468,-2.992975 2.23955,-4.771226 0.73247,-1.471975 1.82704,-3.73096 2.14981,-4.436791 0.0729,-0.159413 0.22854,-0.4905 0.34586,-0.73575 0.11733,-0.24525 0.54008,-1.207135 0.93944,-2.137522 l 0.72612,-1.691614 0.26072,0.01017 c 0.50471,0.01969 6.12905,0.322785 7.56341,0.407587 1.65134,0.09763 3.22945,0.286345 4.33247,0.518088 0.40533,0.08516 1.03148,0.214355 1.39143,0.287099 0.35995,0.07274 0.85238,0.190777 1.09428,0.262293 0.24191,0.07152 0.69107,0.203387 0.99814,0.293047 2.08792,0.609648 4.55586,1.634165 6.09673,2.530941 2.63922,1.536005 3.92357,2.517309 5.12026,3.912108 1.75438,2.044831 2.71675,4.800912 2.717,7.7811 3e-4,3.50715 -0.67528,5.62636 -2.99225,9.38638 -0.18891,0.30656 -0.51057,0.83831 -0.7148,1.18166 -1.02682,1.72627 -2.47453,3.54817 -4.31333,5.42819 -0.42537,0.43491 -0.97838,1.02184 -1.2289,1.30428 -0.25052,0.28245 -0.47348,0.51355 -0.49547,0.51355 -0.022,0 -0.0684,0.0678 -0.10304,0.15066 -0.0866,0.20699 -0.0619,0.20295 -1.39838,0.22864 -5.02096,0.0965 -5.3861,0.11203 -5.72239,0.24326 -0.21964,0.0857 -0.87873,0.14088 -2.71262,0.22707 -0.62303,0.0293 -1.13864,0.0756 -1.29527,0.11632 -0.31711,0.0825 -0.89896,0.17085 -1.5555,0.2363 -0.51316,0.0511 -0.87576,0.1149 -1.02728,0.18061 -0.14618,0.0634 -0.50979,0.12412 -0.94016,0.15702 l -0.40418,0.0309 0.0185,-0.55323 0.0185,-0.55322 -0.0959,-0.50016 c -0.18152,-0.94719 -0.74112,-2.19501 -1.72368,-3.84357 -0.93969,-1.57663 -1.19887,-1.96529 -1.85844,-2.78693 -0.94276,-1.17442 -2.45862,-2.53128 -3.83587,-3.43352 -0.86178,-0.56455 -1.31472,-0.82745 -2.34168,-1.35916 -1.06063,-0.54914 -3.73849,-1.71332 -3.79101,-1.64812 -0.009,0.0108 -0.16696,0.30063 -0.35163,0.64398 -0.5689,1.05776 -1.60552,2.9057 -2.52637,4.50367 -0.26852,0.46598 -0.90092,1.63984 -1.40532,2.60857 -1.16391,2.23534 -1.75691,3.33854 -1.98049,3.68446 -0.0971,0.15029 -0.19962,0.31083 -0.22773,0.35673 l -0.0511,0.0835 -0.0931,-0.0555 c -0.35885,-0.21404 -1.77152,-0.9557 -2.19421,-1.15195 -0.59199,-0.27489 -0.58568,-0.26396 -0.40153,-0.69518 0.0768,-0.17978 0.26095,-0.63791 0.40927,-1.01805 0.14831,-0.38012 0.38814,-0.96617 0.53294,-1.3023 0.14481,-0.33613 0.26329,-0.62144 0.26329,-0.63403 0,-0.16661 1.47719,-3.248 2.0217,-4.2172 0.17223,-0.30657 0.42034,-0.75267 0.55135,-0.99134 0.27485,-0.50071 1.62543,-3.13341 1.62543,-3.16847 0,-0.0215 -0.76931,-0.2756 -1.25061,-0.4131 -1.72208,-0.49198 -3.82482,-0.99353 -5.7524,-1.37207 l -0.54896,-0.10781 -0.0579,0.13914 c -0.0982,0.23586 -0.59003,1.70612 -0.82223,2.45786 -0.12121,0.3924 -0.36688,1.1549 -0.54595,1.69445 -0.46314,1.39548 -0.68894,2.1466 -1.00534,3.34432 -0.61313,2.32098 -1.12374,4.03602 -1.23456,4.14665 -0.0121,0.0121 -0.20737,-0.0184 -0.43388,-0.0677 -0.52006,-0.11332 -1.89102,-0.33461 -2.51033,-0.4052 l -0.47246,-0.0539 0.0584,-0.3354 c 0.0321,-0.18448 0.0886,-0.42707 0.1255,-0.53911 0.0369,-0.11203 0.14891,-0.5448 0.24894,-0.96174 0.78175,-3.25846 1.08084,-4.41384 1.4833,-5.72992 0.26789,-0.87603 0.33921,-1.11598 0.69583,-2.34102 0.14993,-0.51503 0.3527,-1.17321 0.4506,-1.46263 0.12352,-0.36518 0.16161,-0.53114 0.12445,-0.54231 -0.0474,-0.0143 -1.59793,-0.2176 -2.06346,-0.27061 -0.0983,-0.0112 -0.50024,-0.0412 -0.89329,-0.0666 -0.39305,-0.0255 -1.05632,-0.0841 -1.47394,-0.13038 -0.41761,-0.0463 -1.00049,-0.0967 -1.29527,-0.11218 -0.29479,-0.0155 -0.83747,-0.0559 -1.20595,-0.09 -0.826497,-0.0763 -2.330327,-0.12747 -2.359074,-0.0802 -0.01166,0.0192 -0.06222,0.23551 -0.112368,0.48076 -0.05014,0.24525 -0.154183,0.73687 -0.231198,1.09248 -0.07702,0.35561 -0.177698,0.83236 -0.22374,1.05943 -0.04604,0.22708 -0.09466,0.43055 -0.10803,0.45215 -0.03787,0.0612 -0.293107,1.19004 -0.358935,1.58748 -0.0325,0.1962 -0.09302,0.57746 -0.13449,0.84723 -0.04147,0.26978 -0.11545,0.72126 -0.164392,1.0033 -0.04894,0.28203 -0.128375,0.75358 -0.176516,1.04788 -0.04814,0.2943 -0.115216,0.64545 -0.149057,0.78034 -0.03384,0.13489 -0.07516,0.35561 -0.09182,0.4905 -0.01666,0.13489 -0.09829,0.58637 -0.181393,1.0033 -0.0831,0.41692 -0.180671,0.98345 -0.216815,1.25895 -0.03614,0.2755 -0.119337,0.67928 -0.184872,0.89728 l -0.119154,0.39638 -0.34095,0.0297 c -0.737882,0.0643 -2.331223,0.25414 -2.785731,0.33188 -0.263743,0.0451 -0.489858,0.0717 -0.502478,0.0591 -0.04976,-0.0497 -0.01911,-1.01507 0.04593,-1.44639 0.03788,-0.25122 0.05761,-0.52699 0.04384,-0.61283 -0.02278,-0.14201 0.04077,-0.69119 0.286368,-2.47479 0.04728,-0.34335 0.107237,-0.71817 0.133241,-0.83293 0.026,-0.11476 0.07816,-0.41575 0.115911,-0.66886 0.03775,-0.25312 0.09656,-0.60067 0.130696,-0.77235 0.03414,-0.17167 0.07578,-0.46263 0.09255,-0.64657 0.01676,-0.18393 0.05719,-0.46486 0.08983,-0.62427 0.03264,-0.15941 0.0821,-0.4604 0.109908,-0.66886 0.02781,-0.20846 0.100699,-0.58972 0.161982,-0.84723 0.337178,-1.41682 0.629486,-2.70034 0.679328,-2.98292 l 0.04243,-0.24058 -0.698326,0.0255 c -0.653332,0.0239 -1.037164,0.0692 -1.971269,0.23267 -0.576015,0.10081 -2.444185,0.36515 -3.148862,0.44556 -0.952001,0.10862 -1.604383,0.20342 -1.640134,0.23833 -0.01771,0.0173 -0.0026,0.12953 0.0335,0.2494 0.08404,0.27878 0.08342,0.82511 -0.0013,1.14019 -0.04906,0.18249 -0.06607,0.50903 -0.06647,1.27599 l -5.31e-4,1.03073 -0.08911,0.65696 c -0.08781,0.64735 -0.109032,0.86476 -0.248305,2.5433 -0.03866,0.46597 -0.108395,1.12815 -0.154958,1.4715 -0.14507,1.06971 -0.289272,2.92287 -0.33277,4.27647 -0.0149,0.46364 -0.03906,0.92515 -0.05368,1.02559 l -0.02659,0.18261 -0.270453,0.12991 c -0.940158,0.4516 -1.802234,1.20157 -2.396424,2.08479 l -0.26,0.38647 -0.11337,-0.2527 c -0.55981,-1.2478 -0.765222,-5.30057 -0.410577,-8.10069 0.03417,-0.26977 0.09471,-0.96205 0.134529,-1.53839 0.03982,-0.57633 0.115007,-1.45923 0.167076,-1.96199 0.06157,-0.59448 0.10564,-1.42086 0.126043,-2.36332 0.01726,-0.79706 0.04693,-1.49664 0.06594,-1.55461 l 0.03457,-0.10541 -0.0847,0.0261 c -0.04659,0.0143 -0.271967,0.056 -0.500847,0.0926 -1.477518,0.23608 -4.125342,1.17343 -5.769915,2.0426 -1.150585,0.60809 -2.978849,1.76644 -4.019823,2.54688 -0.610836,0.45795 -1.929696,1.71254 -2.23781,2.12875 -0.08346,0.11275 -0.333,0.44384 -0.554527,0.73575 -0.221527,0.29192 -0.49525,0.67122 -0.608273,0.8429 -1.216528,1.84782 -1.391835,2.19255 -1.83677,3.61186 -0.08457,0.26977 -0.188672,0.60086 -0.231335,0.73575 -0.0537,0.16977 -0.08958,0.506 -0.116602,1.09247 -0.02147,0.46611 -0.06922,0.96758 -0.106139,1.11478 -0.08565,0.34148 -0.09708,1.69573 -0.01588,1.88186 0.220702,0.50591 0.835749,0.89656 1.598183,1.01509 0.110545,0.0172 0.301487,0.0613 0.424315,0.0979 0.155675,0.0465 0.588624,0.0784 1.42927,0.10552 0.663271,0.0214 1.728524,0.069 2.367229,0.10593 0.638705,0.0369 1.43262,0.0782 1.764255,0.0918 2.300097,0.0944 2.721048,0.12505 3.483847,0.25414 2.127646,0.36007 3.281153,0.51379 4.182446,0.55737 l 0.586939,0.0284 0.237652,0.46803 c 0.358203,0.70544 0.720684,1.22923 0.991285,1.43242 0.548789,0.41208 1.712877,1.06096 2.175317,1.21256 0.268846,0.0881 0.989959,0.3469 1.272944,0.45679 0.09826,0.0382 0.233931,0.0703 0.301486,0.0713 0.06756,10e-4 0.122828,0.0206 0.122828,0.0433 0,0.0227 -0.05527,0.0853 -0.122828,0.13907 l -0.122827,0.0977 -0.566658,-0.0291 -0.566658,-0.0291 -0.46063,0.11827 -0.46063,0.11827 -0.893294,-0.0495 -0.893294,-0.0495 -0.893294,0.068 c -0.491312,0.0374 -1.20483,0.0632 -1.585597,0.0573 -1.064076,-0.0164 -1.761285,-0.0126 -3.483846,0.0191 l -1.585597,0.0292 z M 35.042424,68.955992 c 0.02457,-0.02253 0.547143,-0.32908 1.161282,-0.681216 0.61414,-0.352135 1.427244,-0.818343 1.806899,-1.036017 l 0.69028,-0.395772 0.180681,0.04762 c 0.09938,0.02619 0.2805,0.05273 0.4025,0.05898 l 0.221819,0.01136 -0.489807,0.218211 c -1.267505,0.564676 -2.761273,1.238071 -3.125024,1.40877 -0.64828,0.304222 -0.896294,0.411791 -0.84863,0.368069 z" id="path8"/></g></g></svg>